<svg width="154" height="196" viewBox="0 0 154 196" fill="none" xmlns="http://www.w3.org/2000/svg">
<circle cx="150.5" cy="3.5" r="3.5" transform="rotate(90 150.5 3.5)" fill="#E7F0FC"/>
<circle cx="129.5" cy="3.5" r="3.5" transform="rotate(90 129.5 3.5)" fill="#E7F0FC"/>
<circle cx="108.5" cy="3.5" r="3.5" transform="rotate(90 108.5 3.5)" fill="#E7F0FC"/>
<circle cx="87.5" cy="3.5" r="3.5" transform="rotate(90 87.5 3.5)" fill="#E7F0FC"/>
<circle cx="66.5" cy="3.5" r="3.5" transform="rotate(90 66.5 3.5)" fill="#E7F0FC"/>
<circle cx="45.5" cy="3.5" r="3.5" transform="rotate(90 45.5 3.5)" fill="#E7F0FC"/>
<circle cx="24.5" cy="3.5" r="3.5" transform="rotate(90 24.5 3.5)" fill="#E7F0FC"/>
<circle cx="3.5" cy="3.5" r="3.5" transform="rotate(90 3.5 3.5)" fill="#E7F0FC"/>
<circle cx="150.5" cy="24.5" r="3.5" transform="rotate(90 150.5 24.5)" fill="#E7F0FC"/>
<circle cx="129.5" cy="24.5" r="3.5" transform="rotate(90 129.5 24.5)" fill="#E7F0FC"/>
<circle cx="108.5" cy="24.5" r="3.5" transform="rotate(90 108.5 24.5)" fill="#E7F0FC"/>
<circle cx="87.5" cy="24.5" r="3.5" transform="rotate(90 87.5 24.5)" fill="#E7F0FC"/>
<circle cx="66.5" cy="24.5" r="3.5" transform="rotate(90 66.5 24.5)" fill="#E7F0FC"/>
<circle cx="45.5" cy="24.5" r="3.5" transform="rotate(90 45.5 24.5)" fill="#E7F0FC"/>
<circle cx="24.5" cy="24.5" r="3.5" transform="rotate(90 24.5 24.5)" fill="#E7F0FC"/>
<circle cx="3.5" cy="24.5" r="3.5" transform="rotate(90 3.5 24.5)" fill="#E7F0FC"/>
<circle cx="150.5" cy="45.5" r="3.5" transform="rotate(90 150.5 45.5)" fill="#E7F0FC"/>
<circle cx="129.5" cy="45.5" r="3.5" transform="rotate(90 129.5 45.5)" fill="#E7F0FC"/>
<circle cx="108.5" cy="45.5" r="3.5" transform="rotate(90 108.5 45.5)" fill="#E7F0FC"/>
<circle cx="87.5" cy="45.5" r="3.5" transform="rotate(90 87.5 45.5)" fill="#E7F0FC"/>
<circle cx="66.5" cy="45.5" r="3.5" transform="rotate(90 66.5 45.5)" fill="#E7F0FC"/>
<circle cx="45.5" cy="45.5" r="3.5" transform="rotate(90 45.5 45.5)" fill="#E7F0FC"/>
<circle cx="24.5" cy="45.5" r="3.5" transform="rotate(90 24.5 45.5)" fill="#E7F0FC"/>
<circle cx="3.5" cy="45.5" r="3.5" transform="rotate(90 3.5 45.5)" fill="#E7F0FC"/>
<circle cx="150.5" cy="66.5" r="3.5" transform="rotate(90 150.5 66.5)" fill="#E7F0FC"/>
<circle cx="129.5" cy="66.5" r="3.5" transform="rotate(90 129.5 66.5)" fill="#E7F0FC"/>
<circle cx="108.5" cy="66.5" r="3.5" transform="rotate(90 108.5 66.5)" fill="#E7F0FC"/>
<circle cx="87.5" cy="66.5" r="3.5" transform="rotate(90 87.5 66.5)" fill="#E7F0FC"/>
<circle cx="66.5" cy="66.5" r="3.5" transform="rotate(90 66.5 66.5)" fill="#E7F0FC"/>
<circle cx="45.5" cy="66.5" r="3.5" transform="rotate(90 45.5 66.5)" fill="#E7F0FC"/>
<circle cx="24.5" cy="66.5" r="3.5" transform="rotate(90 24.5 66.5)" fill="#E7F0FC"/>
<circle cx="3.5" cy="66.5" r="3.5" transform="rotate(90 3.5 66.5)" fill="#E7F0FC"/>
<circle cx="150.5" cy="87.5" r="3.5" transform="rotate(90 150.5 87.5)" fill="#E7F0FC"/>
<circle cx="129.5" cy="87.5" r="3.5" transform="rotate(90 129.5 87.5)" fill="#E7F0FC"/>
<circle cx="108.5" cy="87.5" r="3.5" transform="rotate(90 108.5 87.5)" fill="#E7F0FC"/>
<circle cx="87.5" cy="87.5" r="3.5" transform="rotate(90 87.5 87.5)" fill="#E7F0FC"/>
<circle cx="66.5" cy="87.5" r="3.5" transform="rotate(90 66.5 87.5)" fill="#E7F0FC"/>
<circle cx="45.5" cy="87.5" r="3.5" transform="rotate(90 45.5 87.5)" fill="#E7F0FC"/>
<circle cx="24.5" cy="87.5" r="3.5" transform="rotate(90 24.5 87.5)" fill="#E7F0FC"/>
<circle cx="3.5" cy="87.5" r="3.5" transform="rotate(90 3.5 87.5)" fill="#E7F0FC"/>
<circle cx="150.5" cy="108.5" r="3.5" transform="rotate(90 150.5 108.5)" fill="#E7F0FC"/>
<circle cx="129.5" cy="108.5" r="3.5" transform="rotate(90 129.5 108.5)" fill="#E7F0FC"/>
<circle cx="108.5" cy="108.5" r="3.5" transform="rotate(90 108.5 108.5)" fill="#E7F0FC"/>
<circle cx="87.5" cy="108.5" r="3.5" transform="rotate(90 87.5 108.5)" fill="#E7F0FC"/>
<circle cx="66.5" cy="108.5" r="3.5" transform="rotate(90 66.5 108.5)" fill="#E7F0FC"/>
<circle cx="45.5" cy="108.5" r="3.5" transform="rotate(90 45.5 108.5)" fill="#E7F0FC"/>
<circle cx="24.5" cy="108.5" r="3.5" transform="rotate(90 24.5 108.5)" fill="#E7F0FC"/>
<circle cx="3.5" cy="108.5" r="3.5" transform="rotate(90 3.5 108.5)" fill="#E7F0FC"/>
<circle cx="150.5" cy="129.5" r="3.5" transform="rotate(90 150.5 129.5)" fill="#E7F0FC"/>
<circle cx="129.5" cy="129.5" r="3.5" transform="rotate(90 129.5 129.5)" fill="#E7F0FC"/>
<circle cx="108.5" cy="129.5" r="3.5" transform="rotate(90 108.5 129.5)" fill="#E7F0FC"/>
<circle cx="87.5" cy="129.5" r="3.5" transform="rotate(90 87.5 129.5)" fill="#E7F0FC"/>
<circle cx="66.5" cy="129.5" r="3.5" transform="rotate(90 66.5 129.5)" fill="#E7F0FC"/>
<circle cx="45.5" cy="129.5" r="3.5" transform="rotate(90 45.5 129.5)" fill="#E7F0FC"/>
<circle cx="24.5" cy="129.5" r="3.5" transform="rotate(90 24.5 129.5)" fill="#E7F0FC"/>
<circle cx="3.5" cy="129.5" r="3.5" transform="rotate(90 3.5 129.5)" fill="#E7F0FC"/>
<circle cx="150.5" cy="150.5" r="3.5" transform="rotate(90 150.5 150.5)" fill="#E7F0FC"/>
<circle cx="129.5" cy="150.5" r="3.5" transform="rotate(90 129.5 150.5)" fill="#E7F0FC"/>
<circle cx="108.5" cy="150.5" r="3.5" transform="rotate(90 108.5 150.5)" fill="#E7F0FC"/>
<circle cx="87.5" cy="150.5" r="3.5" transform="rotate(90 87.5 150.5)" fill="#E7F0FC"/>
<circle cx="66.5" cy="150.5" r="3.5" transform="rotate(90 66.5 150.5)" fill="#E7F0FC"/>
<circle cx="45.5" cy="150.5" r="3.5" transform="rotate(90 45.5 150.5)" fill="#E7F0FC"/>
<circle cx="24.5" cy="150.5" r="3.5" transform="rotate(90 24.5 150.5)" fill="#E7F0FC"/>
<circle cx="3.5" cy="150.5" r="3.5" transform="rotate(90 3.5 150.5)" fill="#E7F0FC"/>
<circle cx="150.5" cy="171.5" r="3.5" transform="rotate(90 150.5 171.5)" fill="#E7F0FC"/>
<circle cx="129.5" cy="171.5" r="3.5" transform="rotate(90 129.5 171.5)" fill="#E7F0FC"/>
<circle cx="108.5" cy="171.5" r="3.5" transform="rotate(90 108.5 171.5)" fill="#E7F0FC"/>
<circle cx="87.5" cy="171.5" r="3.5" transform="rotate(90 87.5 171.5)" fill="#E7F0FC"/>
<circle cx="66.5" cy="171.5" r="3.5" transform="rotate(90 66.5 171.5)" fill="#E7F0FC"/>
<circle cx="45.5" cy="171.5" r="3.5" transform="rotate(90 45.5 171.5)" fill="#E7F0FC"/>
<circle cx="24.5" cy="171.5" r="3.5" transform="rotate(90 24.5 171.5)" fill="#E7F0FC"/>
<circle cx="3.5" cy="171.5" r="3.5" transform="rotate(90 3.5 171.5)" fill="#E7F0FC"/>
<circle cx="150.5" cy="192.5" r="3.5" transform="rotate(90 150.5 192.5)" fill="#E7F0FC"/>
<circle cx="129.5" cy="192.5" r="3.5" transform="rotate(90 129.5 192.5)" fill="#E7F0FC"/>
<circle cx="108.5" cy="192.5" r="3.5" transform="rotate(90 108.5 192.5)" fill="#E7F0FC"/>
<circle cx="87.5" cy="192.5" r="3.5" transform="rotate(90 87.5 192.5)" fill="#E7F0FC"/>
<circle cx="66.5" cy="192.5" r="3.5" transform="rotate(90 66.5 192.5)" fill="#E7F0FC"/>
<circle cx="45.5" cy="192.5" r="3.5" transform="rotate(90 45.5 192.5)" fill="#E7F0FC"/>
<circle cx="24.5" cy="192.5" r="3.5" transform="rotate(90 24.5 192.5)" fill="#E7F0FC"/>
<circle cx="3.5" cy="192.5" r="3.5" transform="rotate(90 3.5 192.5)" fill="#E7F0FC"/>
</svg>
