<svg width="14" height="14" viewBox="0 0 14 14" fill="none" xmlns="http://www.w3.org/2000/svg">
<path d="M12.6349 6.0898L12.0633 8.52813C11.5733 10.634 10.6049 11.4856 8.78494 11.3106C8.49328 11.2873 8.17828 11.2348 7.83994 11.1531L6.85994 10.9198C4.42744 10.3423 3.67494 9.14063 4.24661 6.7023L4.81828 4.25813C4.93494 3.7623 5.07494 3.33063 5.24994 2.9748C5.93244 1.56313 7.09328 1.18397 9.04161 1.6448L10.0158 1.8723C12.4599 2.44397 13.2066 3.65147 12.6349 6.0898Z" stroke="#263238" stroke-linecap="round" stroke-linejoin="round"/>
<path d="M8.78496 11.3109C8.42329 11.5559 7.96829 11.7601 7.41412 11.9409L6.49246 12.2443C4.17662 12.9909 2.95745 12.3668 2.20495 10.0509L1.45829 7.74676C0.711621 5.43093 1.32995 4.20593 3.64579 3.45926L4.56745 3.15593C4.80662 3.0801 5.03412 3.01593 5.24996 2.9751C5.07496 3.33093 4.93496 3.7626 4.81829 4.25843L4.24662 6.7026C3.67496 9.14093 4.42746 10.3426 6.85996 10.9201L7.83996 11.1534C8.17829 11.2351 8.49329 11.2876 8.78496 11.3109Z" stroke="#263238" stroke-linecap="round" stroke-linejoin="round"/>
<path d="M7.37329 4.97607L10.2025 5.69357" stroke="#263238" stroke-linecap="round" stroke-linejoin="round"/>
<path d="M6.80164 7.2334L8.4933 7.66507" stroke="#263238" stroke-linecap="round" stroke-linejoin="round"/>
</svg>
