<svg width="81" height="80" viewBox="0 0 81 80" fill="none" xmlns="http://www.w3.org/2000/svg">
<path d="M70.8 23.2666C67.9666 20.1332 63.2333 18.5666 56.3666 18.5666H55.5666V18.4332C55.5666 12.8332 55.5666 5.8999 43.0333 5.8999H37.9666C25.4333 5.8999 25.4333 12.8666 25.4333 18.4332V18.5999H24.6333C17.7333 18.5999 13.0333 20.1666 10.2 23.2999C6.89996 26.9666 6.99996 31.8999 7.3333 35.2666L7.36663 35.4999L7.69996 38.9999C7.7333 39.0332 7.79996 39.0999 7.86663 39.1332C8.96663 39.8666 10.1 40.5999 11.3 41.2666C11.7666 41.5666 12.2666 41.8332 12.7666 42.0999C18.4666 45.2332 24.7333 47.3332 31.1 48.3666C31.4 51.4999 32.7666 55.1666 40.0666 55.1666C47.3666 55.1666 48.8 51.5332 49.0333 48.2999C55.8333 47.1999 62.4 44.8332 68.3333 41.3666C68.5333 41.2666 68.6666 41.1666 68.8333 41.0666C70.3666 40.1999 71.8 39.2666 73.2 38.2332C73.2666 38.1999 73.3333 38.1332 73.3666 38.0666L73.5 36.8666L73.6666 35.2999C73.7 35.0999 73.7 34.9332 73.7333 34.6999C74 31.3332 73.9333 26.7332 70.8 23.2666ZM44.1333 46.0999C44.1333 49.6332 44.1333 50.1666 40.0333 50.1666C35.9333 50.1666 35.9333 49.5332 35.9333 46.1332V41.9332H44.1333V46.0999ZM30.2 18.5666V18.4332C30.2 12.7666 30.2 10.6666 37.9666 10.6666H43.0333C50.8 10.6666 50.8 12.7999 50.8 18.4332V18.5999H30.2V18.5666Z" fill="#2196F3"/>
<path opacity="0.4" d="M68.8333 41C68.6666 41.1 68.5 41.2 68.3333 41.3C62.4 44.7667 55.8333 47.1 49.0333 48.2333C48.7666 51.4333 47.3666 55.1 40.0666 55.1C32.7666 55.1 31.3666 51.4667 31.1 48.3C24.7333 47.3 18.4666 45.2 12.7666 42.0333C12.2666 41.7667 11.7666 41.5 11.3 41.2C10.1 40.5333 8.96662 39.8 7.86662 39.0667C7.79995 39.0333 7.73328 38.9667 7.69995 38.9333L9.73328 60.6333C10.4333 67.2667 13.1666 74.1 27.8333 74.1H53.2333C67.9 74.1 70.6333 67.2667 71.3333 60.6L73.4333 38C73.4 38.0667 73.3333 38.1333 73.2666 38.1667C71.8333 39.2 70.3666 40.1667 68.8333 41Z" fill="#2196F3"/>
</svg>
