<svg width="80" height="80" viewBox="0 0 80 80" fill="none" xmlns="http://www.w3.org/2000/svg">
<path opacity="0.4" d="M73.3334 26.0332V50.5332C72.3667 50.0665 71.3 49.7332 70.1 49.5332L69.0667 49.3665L68.2 47.5665C66.3667 43.8332 63.3667 41.6665 60 41.6665C56.6334 41.6665 53.6334 43.8332 51.8 47.5665L50.9 49.3665L49.9 49.5332C45.9334 50.1998 43.0666 52.3998 42.0333 55.5332C41.0333 58.6998 42.0667 62.1665 44.9 65.0332L45.9333 66.0665L45.8334 66.4665C45.1667 69.4332 45.4334 71.6998 46.0667 73.3332H26.0333C13.9 73.3332 6.66669 66.0998 6.66669 53.9665V26.0332C6.66669 13.8998 13.9 6.6665 26.0333 6.6665H53.9667C66.1 6.6665 73.3334 13.8998 73.3334 26.0332Z" fill="#2196F3"/>
<path d="M63.7333 49.7998L64.8 51.9665C65.3334 53.0331 66.7 54.0331 67.8334 54.2331L69.2667 54.4665C73.6333 55.1998 74.6333 58.3998 71.5333 61.5331L70.2 62.8665C69.3 63.7665 68.8334 65.4998 69.1 66.7665L69.2667 67.5665C70.4667 72.8331 67.6667 74.8665 63.1 72.0998L62.1334 71.4998C60.9667 70.7998 59.0333 70.7998 57.8666 71.4998L56.9 72.0998C52.3 74.8665 49.5333 72.8331 50.7333 67.5665L50.9 66.7665C51.1666 65.5331 50.7 63.7665 49.8 62.8665L48.4667 61.5331C45.3667 58.3665 46.3667 55.1998 50.7333 54.4665L52.1667 54.2331C53.3333 54.0331 54.6667 53.0331 55.2 51.9665L56.2667 49.7998C58.3334 45.6331 61.6667 45.6331 63.7333 49.7998Z" fill="#2196F3"/>
<path fill-rule="evenodd" clip-rule="evenodd" d="M53.765 26.3909C54.8563 27.2369 55.0552 28.8072 54.2093 29.8985L46.4944 39.8508C44.5115 42.3586 40.8554 42.816 38.3048 40.845L38.2874 40.8316L32.1988 36.0405C31.8226 35.7548 31.298 35.8259 31.0123 36.1944C31.0121 36.1948 31.0126 36.1941 31.0123 36.1944L23.0806 46.4923C22.2381 47.5862 20.6683 47.79 19.5745 46.9474C18.4806 46.1049 18.2769 44.5352 19.1194 43.4413L27.0551 33.1382C29.0348 30.5762 32.7055 30.1132 35.262 32.0886L35.2794 32.1021L41.3679 36.8931C41.7481 37.1818 42.2837 37.1075 42.5673 36.7558L50.2575 26.8352C51.1034 25.7439 52.6738 25.545 53.765 26.3909Z" fill="#2196F3"/>
</svg>
