<svg width="80" height="80" viewBox="0 0 80 80" fill="none" xmlns="http://www.w3.org/2000/svg">
<path opacity="0.4" d="M60 10H20C12.6333 10 6.66663 15.9333 6.66663 23.2333V56.7667C6.66663 64.0667 12.6333 70 20 70H60C67.3666 70 73.3333 64.0667 73.3333 56.7667V23.2333C73.3333 15.9333 67.3666 10 60 10Z" fill="#2196F3"/>
<path d="M63.3333 29.1665H46.6666C45.3 29.1665 44.1666 28.0332 44.1666 26.6665C44.1666 25.2998 45.3 24.1665 46.6666 24.1665H63.3333C64.7 24.1665 65.8333 25.2998 65.8333 26.6665C65.8333 28.0332 64.7 29.1665 63.3333 29.1665Z" fill="#2196F3"/>
<path d="M63.3333 42.5H50C48.6333 42.5 47.5 41.3667 47.5 40C47.5 38.6333 48.6333 37.5 50 37.5H63.3333C64.7 37.5 65.8333 38.6333 65.8333 40C65.8333 41.3667 64.7 42.5 63.3333 42.5Z" fill="#2196F3"/>
<path d="M63.3333 55.8335H56.6666C55.3 55.8335 54.1666 54.7002 54.1666 53.3335C54.1666 51.9668 55.3 50.8335 56.6666 50.8335H63.3333C64.7 50.8335 65.8333 51.9668 65.8333 53.3335C65.8333 54.7002 64.7 55.8335 63.3333 55.8335Z" fill="#2196F3"/>
<path d="M28.3333 39.2999C32.5859 39.2999 36.0333 35.8525 36.0333 31.5999C36.0333 27.3473 32.5859 23.8999 28.3333 23.8999C24.0807 23.8999 20.6333 27.3473 20.6333 31.5999C20.6333 35.8525 24.0807 39.2999 28.3333 39.2999Z" fill="#2196F3"/>
<path d="M31 43.7002C29.2333 43.5335 27.4 43.5335 25.6333 43.7002C20.0333 44.2335 15.5333 48.6669 15 54.2669C14.9666 54.7335 15.1 55.2002 15.4333 55.5335C15.7666 55.8669 16.2 56.1002 16.6666 56.1002H40C40.4666 56.1002 40.9333 55.9002 41.2333 55.5669C41.5333 55.2335 41.7 54.7669 41.6666 54.3002C41.1 48.6669 36.6333 44.2335 31 43.7002Z" fill="#2196F3"/>
</svg>
