<svg width="64" height="64" viewBox="0 0 64 64" fill="none" xmlns="http://www.w3.org/2000/svg">
<path d="M7.99996 24.0002C10.9455 24.0002 13.3333 21.6123 13.3333 18.6668C13.3333 15.7213 10.9455 13.3335 7.99996 13.3335C5.05444 13.3335 2.66663 15.7213 2.66663 18.6668C2.66663 21.6123 5.05444 24.0002 7.99996 24.0002Z" fill="#FF007A"/>
<path d="M56 24.0002C58.9455 24.0002 61.3333 21.6123 61.3333 18.6668C61.3333 15.7213 58.9455 13.3335 56 13.3335C53.0544 13.3335 50.6666 15.7213 50.6666 18.6668C50.6666 21.6123 53.0544 24.0002 56 24.0002Z" fill="#FF007A"/>
<path d="M20 44V49.3333C20 50.96 19.0133 52.3733 17.6266 52.96C17.12 53.2 16.5866 53.3333 16 53.3333H10.6666C8.45329 53.3333 6.66663 51.5467 6.66663 49.3333V44C6.66663 41.7867 8.45329 40 10.6666 40H16C18.2133 40 20 41.7867 20 44Z" fill="#FF007A"/>
<path d="M57.3333 44V49.3333C57.3333 51.5467 55.5467 53.3333 53.3333 53.3333H48C47.4133 53.3333 46.88 53.2 46.3733 52.96C44.9867 52.3733 44 50.96 44 49.3333V44C44 41.7867 45.7867 40 48 40H53.3333C55.5467 40 57.3333 41.7867 57.3333 44Z" fill="#FF007A"/>
<path d="M40 14.6665V22.6665C40 24.8532 38.1867 26.6665 36 26.6665H28C25.8133 26.6665 24 24.8532 24 22.6665V14.6665C24 12.4798 25.8133 10.6665 28 10.6665H36C38.1867 10.6665 40 12.4798 40 14.6665Z" fill="#FF007A"/>
<g opacity="0.4">
<path opacity="0.4" d="M24 16.6665H13.3334C12.24 16.6665 11.3334 17.5732 11.3334 18.6665C11.3334 19.7598 12.24 20.6665 13.3334 20.6665H20.1867C14.72 24.7198 11.3334 31.4398 11.3334 38.6665C11.3334 39.1998 11.36 39.7066 11.44 40.2399C11.5467 41.2532 12.4267 41.9998 13.4134 41.9998C13.4934 41.9998 13.5734 41.9998 13.6534 41.9998C14.7467 41.8665 15.5467 40.8798 15.4134 39.7865C15.36 39.4131 15.36 39.0665 15.36 38.6932C15.36 31.7599 19.12 25.3598 24.9334 22.4264C25.92 21.9198 26.32 20.7199 25.8134 19.7332C25.7867 19.7066 25.76 19.6798 25.76 19.6532C25.92 19.3598 26.0534 19.0399 26.0534 18.6932C26 17.5732 25.0934 16.6665 24 16.6665Z" fill="#FF007A"/>
<path opacity="0.4" d="M43.8133 20.6665H50.6667C51.76 20.6665 52.6667 19.7598 52.6667 18.6665C52.6667 17.5732 51.76 16.6665 50.6667 16.6665H40C38.9067 16.6665 38 17.5732 38 18.6665C38 19.0132 38.1067 19.3331 38.2933 19.6265C38.2667 19.6531 38.24 19.6799 38.24 19.7065C37.7333 20.6932 38.1333 21.8932 39.12 22.3999C44.9333 25.3332 48.6933 31.7332 48.6933 38.6665C48.6933 39.0398 48.6667 39.3864 48.64 39.7598C48.5067 40.8531 49.3067 41.8398 50.4 41.9731C50.48 41.9731 50.56 41.9731 50.64 41.9731C51.6533 41.9731 52.5067 41.2266 52.6133 40.2132C52.6667 39.6799 52.72 39.1731 52.72 38.6398C52.6667 31.4398 49.28 24.7198 43.8133 20.6665Z" fill="#FF007A"/>
</g>
</svg>
