<svg width="64" height="64" viewBox="0 0 64 64" fill="none" xmlns="http://www.w3.org/2000/svg">
<path d="M53.3334 38C56.6471 38 59.3334 35.3137 59.3334 32C59.3334 28.6863 56.6471 26 53.3334 26C50.0197 26 47.3334 28.6863 47.3334 32C47.3334 35.3137 50.0197 38 53.3334 38Z" fill="#2639ED"/>
<path d="M53.3334 16.6665C56.6471 16.6665 59.3334 13.9802 59.3334 10.6665C59.3334 7.3528 56.6471 4.6665 53.3334 4.6665C50.0197 4.6665 47.3334 7.3528 47.3334 10.6665C47.3334 13.9802 50.0197 16.6665 53.3334 16.6665Z" fill="#2639ED"/>
<path d="M53.3334 59.3335C56.6471 59.3335 59.3334 56.6472 59.3334 53.3335C59.3334 50.0198 56.6471 47.3335 53.3334 47.3335C50.0197 47.3335 47.3334 50.0198 47.3334 53.3335C47.3334 56.6472 50.0197 59.3335 53.3334 59.3335Z" fill="#2639ED"/>
<path d="M10.6666 38C13.9803 38 16.6666 35.3137 16.6666 32C16.6666 28.6863 13.9803 26 10.6666 26C7.35292 26 4.66663 28.6863 4.66663 32C4.66663 35.3137 7.35292 38 10.6666 38Z" fill="#2639ED"/>
<path opacity="0.4" d="M50.6667 33.9998C51.76 33.9998 52.6667 33.0932 52.6667 31.9998C52.6667 30.9065 51.76 29.9998 50.6667 29.9998H31.3334V18.6665C31.3334 14.4532 33.12 12.6665 37.3334 12.6665H50.6667C51.76 12.6665 52.6667 11.7598 52.6667 10.6665C52.6667 9.57317 51.76 8.6665 50.6667 8.6665H37.3334C30.88 8.6665 27.3334 12.2132 27.3334 18.6665V29.9998H13.3334C12.24 29.9998 11.3334 30.9065 11.3334 31.9998C11.3334 33.0932 12.24 33.9998 13.3334 33.9998H27.3334V45.3332C27.3334 51.7865 30.88 55.3332 37.3334 55.3332H50.6667C51.76 55.3332 52.6667 54.4265 52.6667 53.3332C52.6667 52.2398 51.76 51.3332 50.6667 51.3332H37.3334C33.12 51.3332 31.3334 49.5465 31.3334 45.3332V33.9998H50.6667Z" fill="#2639ED"/>
</svg>
