<svg width="64" height="64" viewBox="0 0 64 64" fill="none" xmlns="http://www.w3.org/2000/svg">
<path d="M27.0133 40.0267L24.2666 37.2801L26.9066 34.6401C27.68 33.8667 27.68 32.5867 26.9066 31.8134C26.1333 31.0401 24.8533 31.0401 24.08 31.8134L21.44 34.4534L18.88 31.8934C18.1066 31.1201 16.8266 31.1201 16.0533 31.8934C15.28 32.6667 15.28 33.9467 16.0533 34.7201L18.6133 37.2801L15.9733 39.9201C15.2 40.6934 15.2 41.9734 15.9733 42.7467C16.3733 43.1467 16.88 43.3334 17.3866 43.3334C17.8933 43.3334 18.4 43.1467 18.8 42.7467L21.44 40.1067L24.1866 42.8534C24.5866 43.2534 25.0933 43.4401 25.6 43.4401C26.1066 43.4401 26.6133 43.2534 27.0133 42.8534C27.7866 42.0801 27.7866 40.8001 27.0133 40.0267Z" fill="#FF9900"/>
<path d="M36.1067 39.9998C34.64 39.9998 33.4133 38.7998 33.4133 37.3332C33.4133 35.8665 34.5867 34.6665 36.0533 34.6665H36.1067C37.5733 34.6665 38.7733 35.8665 38.7733 37.3332C38.7733 38.7998 37.6 39.9998 36.1067 39.9998Z" fill="#FF9900"/>
<path d="M46.6134 39.9998C45.1467 39.9998 43.92 38.7998 43.92 37.3332C43.92 35.8665 45.0934 34.6665 46.56 34.6665H46.6134C48.08 34.6665 49.28 35.8665 49.28 37.3332C49.28 38.7998 48.1067 39.9998 46.6134 39.9998Z" fill="#FF9900"/>
<path d="M41.3333 45.2536C39.8666 45.2536 38.6666 44.0802 38.6666 42.6136V42.5602C38.6666 41.0936 39.8666 39.8936 41.3333 39.8936C42.8 39.8936 44 41.0936 44 42.5602C44 44.0269 42.8266 45.2536 41.3333 45.2536Z" fill="#FF9900"/>
<path d="M41.3333 34.7467C39.8666 34.7467 38.6666 33.5734 38.6666 32.1067V32.0534C38.6666 30.5867 39.8666 29.3867 41.3333 29.3867C42.8 29.3867 44 30.5867 44 32.0534C44 33.5201 42.8266 34.7467 41.3333 34.7467Z" fill="#FF9900"/>
<path opacity="0.4" d="M58.6667 29.5201V44.4001C58.6667 52.2668 52.2667 58.6668 44.4 58.6668H19.6C11.7334 58.6668 5.33337 52.2668 5.33337 44.4001V29.5201C5.33337 21.6534 11.7334 15.2534 19.6 15.2534H44.4C52.2667 15.2534 58.6667 21.6534 58.6667 29.5201Z" fill="#FF9900"/>
<path d="M36.3734 7.22683L36.3467 9.7335C36.32 12.0802 34.3734 14.0268 32 14.0268C31.6 14.0268 31.36 14.2935 31.36 14.6402C31.36 14.9868 31.6267 15.2535 31.9734 15.2535H27.68C27.6534 15.0668 27.6267 14.8535 27.6267 14.6402C27.6267 12.2402 29.5734 10.2935 31.9467 10.2935C32.3467 10.2935 32.6134 10.0268 32.6134 9.68016L32.64 7.1735C32.6667 6.16016 33.4934 5.3335 34.5067 5.3335H34.5334C35.5734 5.3335 36.3734 6.18683 36.3734 7.22683Z" fill="#FF9900"/>
</svg>
