<svg width="64" height="64" viewBox="0 0 64 64" fill="none" xmlns="http://www.w3.org/2000/svg">
<path d="M59.9995 44.2098V49.029C59.9995 54.3984 56.004 59.4596 50.5719 60.934C50.1903 61.022 49.7863 61.022 49.4271 60.934C46.7784 60.2298 44.444 58.6455 42.8053 56.599C41.0321 54.4424 39.9995 51.7797 39.9995 49.029V44.2098C39.9995 43.2856 40.6954 42.2734 41.5483 41.9213L47.7885 39.4126C49.2027 38.8625 50.7739 38.8625 52.188 39.4126L54.4327 40.3148L58.4507 41.9213C59.3037 42.2734 59.9995 43.2856 59.9995 44.2098Z" fill="#00DA71"/>
<path d="M48.3733 40.6934C49.3066 44.0534 51.9466 46.6666 55.3066 47.6266L48.3733 40.6934Z" fill="#00DA71"/>
<path opacity="0.4" d="M5.41333 39.0132C5.41333 39.0932 5.35999 39.1999 5.35999 39.2799C7.81332 44.1865 11.8133 48.2131 16.72 50.6398C16.8 50.6398 16.9067 50.5865 16.9867 50.5865C16.08 47.4932 15.3867 44.3198 14.88 41.1465C11.68 40.6132 8.50666 39.9199 5.41333 39.0132Z" fill="#00DA71"/>
<path opacity="0.4" d="M50.8534 17.1466C48.3467 11.8933 44.1067 7.65334 38.88 5.17334C39.84 8.34667 40.64 11.6 41.1733 14.8534C44.4267 15.3867 47.68 16.16 50.8534 17.1466Z" fill="#00DA71"/>
<path opacity="0.4" d="M5.14661 17.1467C8.34661 16.1867 11.6 15.3868 14.8533 14.8534C15.3866 11.6801 16.0533 8.53344 16.96 5.4401C16.88 5.4401 16.7733 5.38672 16.6933 5.38672C11.6799 7.86672 7.59994 12.0534 5.14661 17.1467Z" fill="#00DA71"/>
<path opacity="0.4" d="M36.8533 14.2935C36.2133 10.8268 35.4133 7.36016 34.2666 4.00016C34.2133 3.8135 34.2133 3.65352 34.1866 3.44019C32.2133 2.96019 30.1333 2.64014 28 2.64014C25.84 2.64014 23.7866 2.93352 21.7866 3.44019C21.76 3.62685 21.7866 3.78683 21.7333 4.00016C20.6133 7.36016 19.7866 10.8268 19.1466 14.2935C25.0399 13.6535 30.96 13.6535 36.8533 14.2935Z" fill="#00DA71"/>
<path opacity="0.4" d="M14.2933 19.1465C10.8 19.7865 7.36 20.5865 4 21.7332C3.81333 21.7865 3.65332 21.7865 3.43998 21.8132C2.95998 23.7865 2.64001 25.8665 2.64001 27.9998C2.64001 30.1598 2.93332 32.2131 3.43998 34.2131C3.62665 34.2398 3.78667 34.2132 4 34.2665C7.36 35.3865 10.8 36.2132 14.2933 36.8532C13.6533 30.9599 13.6533 25.0398 14.2933 19.1465Z" fill="#00DA71"/>
<path opacity="0.4" d="M52.5334 21.8132C52.3467 21.8132 52.1867 21.7865 51.9734 21.7332C48.6134 20.6132 45.1467 19.7865 41.6801 19.1465C42.3467 25.0398 42.3467 30.9598 41.6801 36.8265C45.1467 36.1865 48.6134 35.3865 51.9734 34.2398C52.1601 34.1865 52.32 34.2132 52.5334 34.1865C53.0134 32.1865 53.3334 30.1331 53.3334 27.9731C53.3334 25.8665 53.04 23.8132 52.5334 21.8132Z" fill="#00DA71"/>
<path opacity="0.4" d="M19.1466 41.7065C19.7866 45.1999 20.5866 48.6398 21.7333 51.9998C21.7866 52.1865 21.76 52.3465 21.7866 52.5598C23.7866 53.0398 25.84 53.3599 28 53.3599C30.1333 53.3599 32.2133 53.0665 34.1866 52.5598C34.2133 52.3731 34.2133 52.2132 34.2666 51.9998C35.3866 48.6398 36.2133 45.1999 36.8533 41.7065C33.92 42.0265 30.96 42.2665 28 42.2665C25.04 42.2399 22.0799 42.0265 19.1466 41.7065Z" fill="#00DA71"/>
<path opacity="0.4" d="M18.5333 18.5336C17.7333 24.8269 17.7333 31.1736 18.5333 37.4936C24.8267 38.2936 31.1734 38.2936 37.4934 37.4936C38.2934 31.2002 38.2934 24.8536 37.4934 18.5336C31.1734 17.7336 24.8267 17.7336 18.5333 18.5336Z" fill="#00DA71"/>
</svg>
