<svg width="16" height="16" viewBox="0 0 16 16" fill="none" xmlns="http://www.w3.org/2000/svg">
<path d="M14.44 6.95984L13.7867 9.74651C13.2267 12.1532 12.12 13.1265 10.04 12.9265C9.70671 12.8998 9.3467 12.8398 8.96004 12.7465L7.84004 12.4798C5.06004 11.8198 4.20004 10.4465 4.85337 7.65984L5.50671 4.86651C5.64004 4.29984 5.80004 3.80651 6.00004 3.39984C6.78004 1.78651 8.1067 1.35318 10.3334 1.87984L11.4467 2.13984C14.24 2.79318 15.0934 4.17318 14.44 6.95984Z" stroke="#263238" stroke-width="1.5" stroke-linecap="round" stroke-linejoin="round"/>
<path d="M10.04 12.9266C9.62665 13.2066 9.10665 13.4399 8.47332 13.6466L7.41998 13.9932C4.77332 14.8466 3.37998 14.1332 2.51998 11.4866L1.66665 8.85324C0.813317 6.20657 1.51998 4.80657 4.16665 3.95324L5.21998 3.60657C5.49332 3.5199 5.75332 3.44657 5.99998 3.3999C5.79998 3.80657 5.63998 4.2999 5.50665 4.86657L4.85332 7.6599C4.19998 10.4466 5.05998 11.8199 7.83998 12.4799L8.95998 12.7466C9.34665 12.8399 9.70665 12.8999 10.04 12.9266Z" stroke="#263238" stroke-width="1.5" stroke-linecap="round" stroke-linejoin="round"/>
<path d="M8.42664 5.68652L11.66 6.50652" stroke="#263238" stroke-width="1.5" stroke-linecap="round" stroke-linejoin="round"/>
<path d="M7.77332 8.2666L9.70665 8.75994" stroke="#263238" stroke-width="1.5" stroke-linecap="round" stroke-linejoin="round"/>
</svg>
