<svg width="16" height="16" viewBox="0 0 16 16" fill="none" xmlns="http://www.w3.org/2000/svg">
<path d="M6.70001 1.68669L2.68668 4.30669C1.40001 5.14669 1.40001 7.02669 2.68668 7.86669L6.70001 10.4867C7.42001 10.96 8.60668 10.96 9.32668 10.4867L13.32 7.86669C14.6 7.02669 14.6 5.15336 13.32 4.31336L9.32668 1.69336C8.60668 1.21336 7.42001 1.21336 6.70001 1.68669Z" stroke="#263238" stroke-width="1.5" stroke-linecap="round" stroke-linejoin="round"/>
<path d="M3.75337 8.72021L3.7467 11.8469C3.7467 12.6935 4.40004 13.6002 5.20004 13.8669L7.3267 14.5735C7.69337 14.6935 8.30004 14.6935 8.67337 14.5735L10.8 13.8669C11.6 13.6002 12.2534 12.6935 12.2534 11.8469V8.75355" stroke="#263238" stroke-width="1.5" stroke-linecap="round" stroke-linejoin="round"/>
<path d="M14.2667 10V6" stroke="#263238" stroke-width="1.5" stroke-linecap="round" stroke-linejoin="round"/>
</svg>
