<svg width="40" height="40" viewBox="0 0 40 40" fill="none" xmlns="http://www.w3.org/2000/svg">
<path opacity="0.4" d="M29.2166 12.9502C29.0999 12.9335 28.9833 12.9335 28.8666 12.9502C26.2833 12.8668 24.2333 10.7502 24.2333 8.15016C24.2333 5.50016 26.3833 3.3335 29.0499 3.3335C31.6999 3.3335 33.8666 5.48349 33.8666 8.15016C33.8499 10.7502 31.7999 12.8668 29.2166 12.9502Z" fill="white"/>
<path opacity="0.4" d="M34.65 24.5002C32.7833 25.7502 30.1666 26.2168 27.75 25.9002C28.3833 24.5335 28.7166 23.0169 28.7333 21.4169C28.7333 19.7502 28.3666 18.1669 27.6666 16.7835C30.1333 16.4502 32.75 16.9168 34.6333 18.1668C37.2666 19.9002 37.2666 22.7502 34.65 24.5002Z" fill="white"/>
<path opacity="0.4" d="M10.7334 12.9502C10.85 12.9335 10.9667 12.9335 11.0834 12.9502C13.6667 12.8668 15.7167 10.7502 15.7167 8.15016C15.7167 5.50016 13.5667 3.3335 10.9 3.3335C8.25004 3.3335 6.08337 5.48349 6.08337 8.15016C6.10004 10.7502 8.15004 12.8668 10.7334 12.9502Z" fill="white"/>
<path opacity="0.4" d="M10.9166 21.4167C10.9166 23.0333 11.2666 24.5667 11.8999 25.95C9.54995 26.2 7.09995 25.7 5.29995 24.5167C2.66662 22.7667 2.66662 19.9167 5.29995 18.1667C7.08328 16.9667 9.59995 16.4833 11.9666 16.75C11.2833 18.15 10.9166 19.7334 10.9166 21.4167Z" fill="white"/>
<path d="M20.2 26.45C20.0667 26.4333 19.9167 26.4333 19.7667 26.45C16.7 26.35 14.25 23.8333 14.25 20.7333C14.25 17.5667 16.8 15 19.9833 15C23.15 15 25.7167 17.5667 25.7167 20.7333C25.7167 23.8333 23.2833 26.35 20.2 26.45Z" fill="white"/>
<path d="M14.7834 29.8999C12.2667 31.5832 12.2667 34.3499 14.7834 36.0166C17.65 37.9332 22.35 37.9332 25.2167 36.0166C27.7334 34.3332 27.7334 31.5666 25.2167 29.8999C22.3667 27.9832 17.6667 27.9832 14.7834 29.8999Z" fill="white"/>
</svg>
