<svg width="40" height="40" viewBox="0 0 40 40" fill="none" xmlns="http://www.w3.org/2000/svg">
<path opacity="0.4" d="M30.6334 21.3999V29.6166C30.6334 31.7332 28.9834 33.9999 27 34.6666L21.6834 36.4332C20.75 36.7499 19.2334 36.7499 18.3167 36.4332L13 34.6666C11 33.9999 9.3667 31.7332 9.3667 29.6166L9.38337 21.3999L16.75 26.1999C18.55 27.3832 21.5167 27.3832 23.3167 26.1999L30.6334 21.3999Z" fill="white"/>
<path d="M33.3 10.7666L23.3167 4.2166C21.5167 3.03327 18.55 3.03327 16.75 4.2166L6.7167 10.7666C3.50003 12.8499 3.50003 17.5666 6.7167 19.6666L9.38337 21.3999L16.75 26.1999C18.55 27.3833 21.5167 27.3833 23.3167 26.1999L30.6334 21.3999L32.9167 19.8999V24.9999C32.9167 25.6833 33.4834 26.2499 34.1667 26.2499C34.85 26.2499 35.4167 25.6833 35.4167 24.9999V16.7999C36.0834 14.6499 35.4 12.1499 33.3 10.7666Z" fill="white"/>
</svg>
