<svg width="16" height="16" viewBox="0 0 16 16" fill="none" xmlns="http://www.w3.org/2000/svg">
<path fill-rule="evenodd" clip-rule="evenodd" d="M8.00101 0.897176C7.3782 0.897176 6.83919 0.894472 6.36902 0.892114C4.01312 0.880296 3.38576 0.877149 2.60544 1.26628C1.74358 1.69535 1.12471 2.50713 0.967667 3.59465L0.965522 3.60941C0.919037 3.92906 0.905794 4.02013 0.902749 5.69365C0.900885 6.64097 0.897417 7.45611 0.894421 8.1606C0.877545 12.1279 0.875596 12.5862 1.25887 13.3811C1.63415 14.162 2.35134 14.7487 3.1965 14.9676C3.78981 15.1207 4.20868 15.1203 6.7822 15.1179C7.13983 15.1176 7.53907 15.1172 7.98617 15.1172C8.58951 15.1172 9.1112 15.1193 9.56606 15.1212H9.56641C11.4269 15.1287 12.1695 15.1318 12.8098 14.9663C13.66 14.7462 14.3642 14.1688 14.7475 13.3768C15.1195 12.6076 15.1159 12.0226 15.1022 9.77664V9.77658V9.77652V9.77644C15.0991 9.27491 15.0956 8.69057 15.0956 8.00286C15.0956 7.30781 15.1001 6.71685 15.104 6.20871C15.1203 4.07896 15.1254 3.4041 14.7401 2.61842C14.5768 2.28641 14.3957 2.03787 14.1329 1.78438C13.1821 0.874317 12.0698 0.883847 10.7928 0.894789C10.6348 0.896142 10.4744 0.897516 10.3115 0.897176H8.00101ZM7.99829 11.4304C6.11073 11.4304 4.57497 9.89466 4.57497 8.0071C4.57497 6.11955 6.11073 4.58379 7.99829 4.58379C9.88584 4.58379 11.4216 6.11955 11.4216 8.0071C11.4216 9.89466 9.88584 11.4304 7.99829 11.4304ZM12.9984 4.07555C12.9984 4.68207 12.5391 5.13958 11.9295 5.13958C11.3421 5.13958 10.8611 4.7068 10.8611 4.07555C10.8611 3.46904 11.3205 3.01152 11.9301 3.01152C12.515 3.01152 12.9984 3.44307 12.9984 4.07555Z" fill="#2196F3"/>
</svg>
