<svg width="16" height="15" viewBox="0 0 16 15" fill="none" xmlns="http://www.w3.org/2000/svg">
<path d="M15.2637 14.2214L15.2668 14.2208V9.06105C15.2668 6.45943 14.7071 4.45605 11.6661 4.45605C10.2042 4.45605 9.2233 5.25854 8.82237 6.01942H8.78013V4.69875H5.89673V14.2208H8.89928V9.58554C8.89928 8.3235 9.13882 7.10369 10.7016 7.10369C12.2416 7.10369 12.2643 8.54413 12.2643 9.66749V14.2221L15.2637 14.2214Z" fill="white"/>
<path d="M1.12634 4.85742H4.13267V14.2219H1.12634V4.85742Z" fill="white"/>
<path d="M2.63005 0C1.66934 0 0.888916 0.780422 0.888916 1.74114C0.888916 2.70248 1.66871 3.49803 2.63005 3.49803C3.59077 3.49803 4.37119 2.70185 4.37119 1.74114C4.37119 0.779792 3.59077 0 2.63005 0Z" fill="white"/>
</svg>
