<svg width="17" height="16" viewBox="0 0 17 16" fill="none" xmlns="http://www.w3.org/2000/svg">
<path d="M15.3323 4.43657C16.027 3.93153 16.6281 2.75463 16.8889 1.91366C16.212 2.32723 15.186 1.86216 14.3895 2.02589C11.9629 -0.62232 7.61861 1.72071 8.41064 5.29753C5.49812 5.1507 2.92069 3.72167 1.18878 1.54314C0.231813 3.2466 0.766022 5.31213 2.26537 6.33913C1.70219 6.32837 1.15089 6.16002 0.682807 5.89712C0.682807 7.74664 1.94737 9.13955 3.48982 9.4624C2.95413 9.61307 2.29584 9.60692 1.90874 9.51929C2.36196 10.9399 3.65105 11.9853 5.18235 12.0191C3.65179 13.2452 1.73191 13.7249 0 13.5004C1.5521 14.5251 3.391 15.1109 5.37404 15.1109C11.5505 15.1109 15.5857 9.83369 15.3323 4.43657Z" fill="white"/>
</svg>
