<svg width="16" height="16" viewBox="0 0 16 16" fill="none" xmlns="http://www.w3.org/2000/svg">
<path d="M13.0402 2.95587L13.0489 2.93299C8.49222 -1.47156 0.95137 1.72163 0.948897 7.93611C0.948897 9.17839 1.27415 10.3891 1.89436 11.4589L0.888916 15.1109L4.64296 14.132C6.27913 15.0157 7.61849 14.9371 8.03031 14.9897C14.3314 14.9897 17.4683 7.36598 13.0402 2.95587ZM11.2507 10.501C9.87487 13.2187 3.9807 9.15674 3.9807 6.32034C3.9807 5.43671 4.44941 4.99706 4.61822 4.81712C4.83155 4.58957 5.14073 4.58091 5.45238 4.60812C5.92976 4.60812 5.90069 5.2141 6.42444 6.25789C6.46958 6.34817 6.5005 6.44834 6.4399 6.57634C6.06827 7.27632 5.72137 7.25468 5.9044 7.56881C6.012 7.75122 6.37497 8.34299 6.91665 8.82592C7.6123 9.44552 8.19912 9.63659 8.38216 9.7281C8.77729 9.90681 8.75255 9.63968 9.35174 8.9768C9.50385 8.80861 9.59599 8.82469 9.76233 8.8859C9.92866 8.94588 11.3144 9.55435 11.3595 9.63659C11.4059 9.71759 11.456 10.0948 11.2507 10.501Z" fill="white"/>
</svg>
