<svg width="32" height="32" viewBox="0 0 32 32" fill="none" xmlns="http://www.w3.org/2000/svg">
<rect width="32" height="32" rx="16" fill="#2196F3"/>
<path fill-rule="evenodd" clip-rule="evenodd" d="M16.0008 8.89718C15.378 8.89718 14.8389 8.89447 14.3688 8.89211C12.0129 8.8803 11.3855 8.87715 10.6052 9.26628C9.74334 9.69535 9.12446 10.5071 8.96742 11.5947L8.96528 11.6094C8.91879 11.9291 8.90555 12.0201 8.90251 13.6936C8.90064 14.641 8.89717 15.4561 8.89418 16.1606C8.8773 20.1279 8.87535 20.5862 9.25862 21.3811C9.63391 22.162 10.3511 22.7487 11.1963 22.9676C11.7896 23.1207 12.2084 23.1203 14.782 23.1179C15.1396 23.1176 15.5388 23.1172 15.9859 23.1172C16.5893 23.1172 17.111 23.1193 17.5658 23.1212H17.5662C19.4267 23.1287 20.1692 23.1318 20.8096 22.9663C21.6597 22.7462 22.3639 22.1688 22.7472 21.3768C23.1192 20.6076 23.1156 20.0226 23.1019 17.7766V17.7766V17.7765V17.7764C23.0989 17.2749 23.0953 16.6906 23.0953 16.0029C23.0953 15.3078 23.0998 14.7169 23.1037 14.2087C23.12 12.079 23.1252 11.4041 22.7398 10.6184C22.5766 10.2864 22.3954 10.0379 22.1327 9.78438C21.1819 8.87432 20.0695 8.88385 18.7925 8.89479C18.6346 8.89614 18.4742 8.89752 18.3112 8.89718H16.0008ZM15.998 19.4304C14.1105 19.4304 12.5747 17.8947 12.5747 16.0071C12.5747 14.1196 14.1105 12.5838 15.998 12.5838C17.8856 12.5838 19.4214 14.1196 19.4214 16.0071C19.4214 17.8947 17.8856 19.4304 15.998 19.4304ZM20.9982 12.0756C20.9982 12.6821 20.5388 13.1396 19.9292 13.1396C19.3419 13.1396 18.8609 12.7068 18.8609 12.0756C18.8609 11.469 19.3202 11.0115 19.9298 11.0115C20.5147 11.0115 20.9982 11.4431 20.9982 12.0756Z" fill="white"/>
</svg>
