<svg width="32" height="32" viewBox="0 0 32 32" fill="none" xmlns="http://www.w3.org/2000/svg">
<rect width="32" height="32" rx="16" fill="#B0BEC5"/>
<path d="M23.3323 12.4366C24.027 11.9315 24.6281 10.7546 24.8889 9.91366C24.212 10.3272 23.186 9.86216 22.3895 10.0259C19.9629 7.37768 15.6186 9.72071 16.4106 13.2975C13.4981 13.1507 10.9207 11.7217 9.18878 9.54314C8.23181 11.2466 8.76602 13.3121 10.2654 14.3391C9.70219 14.3284 9.15089 14.16 8.68281 13.8971C8.68281 15.7466 9.94737 17.1395 11.4898 17.4624C10.9541 17.6131 10.2958 17.6069 9.90874 17.5193C10.362 18.9399 11.651 19.9853 13.1823 20.0191C11.6518 21.2452 9.73191 21.7249 8 21.5004C9.5521 22.5251 11.391 23.1109 13.374 23.1109C19.5505 23.1109 23.5857 17.8337 23.3323 12.4366Z" fill="white"/>
</svg>
