<svg width="24" height="24" viewBox="0 0 24 24" fill="none" xmlns="http://www.w3.org/2000/svg">
<path d="M16.5197 5.6499L13.4197 3.2499C13.0197 2.8499 12.1197 2.6499 11.5197 2.6499H7.71973C6.51973 2.6499 5.21973 3.5499 4.91973 4.7499L2.51973 12.0499C2.01973 13.4499 2.91973 14.6499 4.41973 14.6499H8.41973C9.01973 14.6499 9.51973 15.1499 9.41973 15.8499L8.91973 19.0499C8.71973 19.9499 9.31973 20.9499 10.2197 21.2499C11.0197 21.5499 12.0197 21.1499 12.4197 20.5499L16.5197 14.4499" stroke="#263238" stroke-width="1.5" stroke-miterlimit="10"/>
<path d="M21.6201 5.65V15.45C21.6201 16.85 21.0201 17.35 19.6201 17.35H18.6201C17.2201 17.35 16.6201 16.85 16.6201 15.45V5.65C16.6201 4.25 17.2201 3.75 18.6201 3.75H19.6201C21.0201 3.75 21.6201 4.25 21.6201 5.65Z" stroke="#263238" stroke-width="1.5" stroke-linecap="round" stroke-linejoin="round"/>
</svg>
