<svg width="18" height="17" viewBox="0 0 18 17" fill="none" xmlns="http://www.w3.org/2000/svg">
<path d="M7.81777 2.18669L3.42373 4.80669C2.01501 5.64669 2.01501 7.52669 3.42373 8.36669L7.81777 10.9867C8.60607 11.46 9.90531 11.46 10.6936 10.9867L15.0658 8.36669C16.4672 7.52669 16.4672 5.65336 15.0658 4.81336L10.6936 2.19336C9.90531 1.71336 8.60607 1.71336 7.81777 2.18669Z" stroke="#263238" stroke-width="1.5" stroke-linecap="round" stroke-linejoin="round"/>
<path d="M4.59177 9.22021L4.58447 12.3469C4.58447 13.1935 5.29978 14.1002 6.17567 14.3669L8.50408 15.0735C8.90553 15.1935 9.56974 15.1935 9.97849 15.0735L12.3069 14.3669C13.1828 14.1002 13.8981 13.1935 13.8981 12.3469V9.25355" stroke="#263238" stroke-width="1.5" stroke-linecap="round" stroke-linejoin="round"/>
<path d="M16.1025 10.5V6.5" stroke="#263238" stroke-width="1.5" stroke-linecap="round" stroke-linejoin="round"/>
</svg>
