<svg width="14" height="14" viewBox="0 0 14 14" fill="none" xmlns="http://www.w3.org/2000/svg">
<path d="M9.08829 7.00044C9.08829 8.15544 8.15495 9.08878 6.99995 9.08878C5.84495 9.08878 4.91162 8.15544 4.91162 7.00044C4.91162 5.84544 5.84495 4.91211 6.99995 4.91211C8.15495 4.91211 9.08829 5.84544 9.08829 7.00044Z" stroke="#2196F3" stroke-width="1.5" stroke-linecap="round" stroke-linejoin="round"/>
<path d="M7.00003 11.8241C9.0592 11.8241 10.9784 10.6108 12.3142 8.51075C12.8392 7.68825 12.8392 6.30575 12.3142 5.48325C10.9784 3.38325 9.0592 2.16992 7.00003 2.16992C4.94086 2.16992 3.0217 3.38325 1.68586 5.48325C1.16086 6.30575 1.16086 7.68825 1.68586 8.51075C3.0217 10.6108 4.94086 11.8241 7.00003 11.8241Z" stroke="#2196F3" stroke-width="1.5" stroke-linecap="round" stroke-linejoin="round"/>
</svg>
