<?xml version="1.0" encoding="utf-8"?>
<!-- Generator: Adobe Illustrator 27.5.0, SVG Export Plug-In . SVG Version: 6.00 Build 0)  -->
<svg version="1.1" xmlns="http://www.w3.org/2000/svg" xmlns:xlink="http://www.w3.org/1999/xlink" x="0px" y="0px"
	 viewBox="0 0 500 500" style="enable-background:new 0 0 500 500;" xml:space="preserve">
<g id="BACKGROUND">
	<rect style="fill:transparent;" width="500" height="500"/>
</g>
<g id="OBJECTS">
	<g>
		<g>
			<path style="fill:#B5DFEA;" d="M453.058,393.555c6.951,0,12.625-5.573,12.731-12.524c0.532-34.645,3.323-85.746-61.922-99.879
				c-52.799-11.437-21.495-105.268-163.689-99.205c-102.072,4.352-74.955,90.387-154.319,97.552
				c-52.81,4.768-53.267,71.559-51.238,102.163c0.444,6.694,5.997,11.894,12.706,11.894H453.058z"/>
			<g>
				<path style="opacity:0.55;fill:#90CEDD;" d="M403.867,281.152c-52.799-11.437-21.495-105.268-163.689-99.205
					c-24.277,1.035-41.237,6.696-54.068,14.813c4.323-0.566,8.911-0.965,13.801-1.173c142.194-6.063,110.89,87.768,163.689,99.205
					c64.549,13.982,62.506,64.148,61.94,98.764h27.518c6.951,0,12.625-5.573,12.731-12.524
					C466.321,346.387,469.112,295.285,403.867,281.152z"/>
			</g>
			<g>
				<rect x="177.77" style="fill:#79C9E8;" width="2.245" height="163.799"/>
				<rect x="338.744" style="fill:#79C9E8;" width="2.245" height="188.961"/>
				<g>
					<path style="fill:#D7F0F9;" d="M340.774,177.946L173.827,158.46c-7.135-0.833-13.594,4.276-14.426,11.411l-12.46,106.754
						c-0.833,7.135,4.276,13.594,11.411,14.426l166.947,19.486c7.135,0.833,13.594-4.276,14.426-11.411l12.46-106.754
						C353.017,185.238,347.909,178.779,340.774,177.946z"/>
					<path style="fill:#0582C1;" d="M350.951,202.939l1.233-10.567c0.833-7.135-4.276-13.594-11.411-14.426L173.827,158.46
						c-7.135-0.833-13.594,4.276-14.426,11.411l-1.233,10.567L350.951,202.939z"/>
					<g>
						<path style="fill:#79C9E8;" d="M185.178,245.079l21.162-37.286c1.356-2.389,4.01-3.734,6.738-3.416l0,0
							c3.75,0.438,6.435,3.833,5.998,7.583l-4.402,37.716l0.188,0.022c2.598,0.303,4.459,2.656,4.156,5.254l0,0
							c-0.303,2.598-2.656,4.459-5.254,4.156l-0.188-0.022l-0.802,6.869c-0.327,2.806-2.868,4.815-5.674,4.488l0,0
							c-2.806-0.328-4.815-2.868-4.488-5.674l0.802-6.869l-15.235-1.778c-2.603-0.304-4.466-2.66-4.163-5.263l0.404-3.461
							C184.515,246.581,184.773,245.793,185.178,245.079z M204.584,247.868l2.73-23.39c0.019-0.162-0.199-0.233-0.279-0.091
							l-12.503,22.063c-0.221,0.39,0.027,0.878,0.472,0.93l8.886,1.037C204.234,248.457,204.544,248.211,204.584,247.868z"/>
						<path style="fill:#79C9E8;" d="M278.574,255.98l21.162-37.286c1.356-2.389,4.01-3.734,6.738-3.416l0,0
							c3.75,0.438,6.435,3.833,5.998,7.583l-4.402,37.716l0.188,0.022c2.598,0.303,4.459,2.656,4.156,5.254l0,0
							c-0.303,2.598-2.656,4.459-5.254,4.156l-0.188-0.022l-0.802,6.869c-0.328,2.806-2.868,4.815-5.674,4.488l0,0
							c-2.806-0.328-4.815-2.868-4.488-5.674l0.802-6.869l-15.235-1.778c-2.603-0.304-4.466-2.66-4.163-5.263l0.404-3.461
							C277.911,257.482,278.169,256.694,278.574,255.98z M297.981,258.769l2.73-23.39c0.019-0.162-0.199-0.233-0.279-0.091
							l-12.503,22.063c-0.221,0.389,0.027,0.878,0.472,0.93l8.887,1.037C297.63,259.358,297.941,259.112,297.981,258.769z"/>
						<path style="fill:#79C9E8;" d="M236.588,223.144c1.23-10.538,7.484-15.913,17.647-14.726
							c10.162,1.186,15.011,7.856,13.781,18.395l-3.998,34.25c-1.23,10.539-7.485,15.913-17.647,14.727
							c-10.163-1.186-15.011-7.856-13.781-18.395L236.588,223.144z M242.864,259.26c-0.549,4.705,1.312,6.734,4.605,7.118
							c3.293,0.384,5.572-1.161,6.121-5.866l4.151-35.567c0.549-4.705-1.312-6.734-4.605-7.118
							c-3.293-0.384-5.572,1.162-6.121,5.867L242.864,259.26z"/>
					</g>
					<g>
						<path style="fill:#FFFFFF;" d="M177.848,173.212c-0.224,1.917-1.96,3.29-3.877,3.067c-1.917-0.224-3.29-1.96-3.066-3.877
							c0.224-1.917,1.959-3.29,3.877-3.066S178.072,171.295,177.848,173.212z"/>
						<path style="fill:#79C9E8;" d="M194.594,175.167c-0.224,1.917-1.96,3.29-3.877,3.067c-1.917-0.224-3.29-1.96-3.067-3.877
							c0.224-1.917,1.96-3.29,3.877-3.066C193.445,171.514,194.818,173.25,194.594,175.167z"/>
						<path style="fill:#FFBF4D;" d="M211.953,177.193c-0.224,1.917-1.96,3.29-3.877,3.066c-1.917-0.224-3.29-1.96-3.066-3.877
							c0.224-1.917,1.96-3.29,3.877-3.066C210.804,173.54,212.177,175.276,211.953,177.193z"/>
					</g>
				</g>
			</g>
			<g>
				<path style="fill:#00668E;" d="M144.793,298.792c0,0-2.255,9.998-1.879,20.221c0.337,9.152-0.752,69.31-0.752,69.31h7.348
					c0,0,10.46-47.116,10.851-50.837c0.391-3.721,5.652-40.93,5.652-40.93L144.793,298.792z"/>
				<path style="fill:#0582C1;" d="M149.679,296.048c0,0,1.691,12.854,4.566,21.987c2.875,9.133,17.007,70.287,17.007,70.287h7.348
					c0,0-1.353-47.116-1.861-50.837c-0.507-3.721-4.228-40.93-4.228-40.93L149.679,296.048z"/>
				<path style="fill:#0582C1;" d="M171.853,388.311v5.128h13.988c0.795,0,1.105-1.03,0.444-1.471
					c-2.046-1.362-5.322-3.239-8.368-3.658H171.853z"/>
				<path style="fill:#0582C1;" d="M142.537,388.311v5.128h13.988c0.795,0,1.105-1.03,0.444-1.471
					c-2.046-1.362-5.322-3.239-8.368-3.658H142.537z"/>
				<g>
					<path style="fill:#00668E;" d="M167.774,236.255c0,0,4.811-7.305-0.713-8.018c-4.241-0.547-5.986,0.716-5.986,0.716
						s-4.883-0.538-7.556,1.778c-1.831,1.587-8.553,13.898,2.316,18.352c10.869,4.455,8.553-6.949,8.553-6.949L167.774,236.255z"/>
					<path style="fill:#05556D;" d="M167.062,228.237c-4.241-0.547-5.986,0.716-5.986,0.716s-4.883-0.538-7.556,1.778
						c-1.831,1.587-8.553,13.898,2.316,18.352c5.109,2.094,7.304,0.683,8.196-1.399c-10.313,2.901-11.43-9.528-9.73-13.064
						c1.728-3.594,5.874-1.935,5.874-1.935c1.622-4.082,6.907-3.64,9.085-3.322C168.865,228.796,168.177,228.381,167.062,228.237z"
						/>
					<path style="fill:#F98D3D;" d="M161.003,239.818c0,0-1.425-1.425-2.494,0c-1.069,1.426-0.356,4.633,1.425,4.811
						c0,0-0.535,4.633-4.098,4.454v3.742h8.374v-2.851c0,0,5.167-2.138,4.989-6.414c-0.178-4.276-1.425-7.305-1.425-7.305
						S164.923,239.462,161.003,239.818z"/>
					<path style="fill:#ED701B;" d="M162.285,251.173c0.829,0.345,0.684,0.868,0.721,1.653h1.205v-2.851
						c0,0-2.029,0.645-5.001-1.048C159.21,248.926,160.939,250.612,162.285,251.173z"/>
				</g>
				<path style="fill:#F98D3D;" d="M163.999,232.999c0,0-4.341-1.729-4.848-0.432c-0.332,0.849,0.513,1.581,1.671,2.319
					l-1.022,0.168c-0.227,0.038-0.309,0.328-0.13,0.472c0.285,0.23,1.072,0.385,2.713,0.442L163.999,232.999z"/>
				<g>
					<polygon style="fill:none;" points="138.178,280.074 143.995,298.817 143.891,297.871 143.995,298.817 145.958,271.524 					
						"/>
					<path style="fill:#FFBF4D;" d="M194.995,243.871c-8.277-6.134-30.884-11.038-30.884-11.038l-1.863,3.395
						c0,0,20.523,7.953,19.168,9.138c-0.795,0.7-10.825,5.295-14.219,6.841c-0.729,0.331-1.524,0.493-2.334,0.479l-10.39-0.059
						c0,0-7.496-0.891-13.395,5.884c-5.272,6.068-14.234,20.118-14.234,20.118l15.096,22.202l1.672,2.452l0.015-0.03l-0.015,0.206
						c0,0,0.537,0.059,1.487,0.147c4.853,0.449,20.405,1.679,28.638-0.066l0.228-0.052l-0.39-36.421
						c13.144-10.405,19.418-18.439,21.664-20.965C195.827,245.432,195.717,244.409,194.995,243.871z M144.34,293.54l-1.473-3.218
						l-4.691-10.25l7.784-8.719l-1.399,19.131L144.34,293.54z"/>
				</g>
				<polygon style="fill:#EFAA3A;" points="142.867,290.322 144.34,293.54 143.625,303.253 143.611,303.282 141.939,300.83 				"/>
				<path style="opacity:0.29;fill:#F98D2B;" d="M170.062,265.758c-1.398,1.015-1.044,10.023-1.389,15.654
					c-0.578,9.431-1.141,17.592-0.726,22.854c2.131-0.14,4.113-0.371,5.789-0.726l0.228-0.052l-0.39-36.421
					c13.144-10.405,19.418-18.439,21.664-20.965c0.589-0.67,0.479-1.694-0.243-2.231
					C194.995,243.871,184.605,255.199,170.062,265.758z"/>
				<path style="fill:#00668E;" d="M176.74,337.485c-0.366-2.685-2.405-22.804-3.512-33.8l-5.281,0.581
					c0,0,7.704,63.333,8.21,84.056h2.444C178.601,388.323,177.248,341.206,176.74,337.485z"/>
				<g>
					<path style="fill:#0582C1;" d="M142.881,240.857l-1.592-2.855c0.798-1.505,1.254-3.219,1.254-5.041
						c0-5.954-4.827-10.781-10.781-10.781c-5.954,0-10.781,4.827-10.781,10.781c0,5.954,4.827,10.781,10.781,10.781
						c2.998,0,5.708-1.225,7.662-3.2L142.881,240.857z"/>
					<g>
						<path style="fill:#FFFFFF;" d="M126.154,231.988h0.42v1.503c0,0.46,0.137,0.658,0.461,0.658c0.253,0,0.43-0.127,0.663-0.415
							v-1.746h0.415v2.459h-0.343l-0.036-0.385h-0.015c-0.228,0.268-0.47,0.445-0.81,0.445c-0.521,0-0.754-0.334-0.754-0.961
							V231.988z"/>
						<path style="fill:#FFFFFF;" d="M129.862,234.654v0.83h-0.415v-3.497h0.345l0.035,0.283h0.015
							c0.223-0.187,0.496-0.344,0.785-0.344c0.632,0,0.971,0.491,0.971,1.255c0,0.835-0.501,1.326-1.063,1.326
							c-0.227,0-0.455-0.106-0.683-0.283L129.862,234.654z M130.464,234.159c0.405,0,0.703-0.369,0.703-0.976
							c0-0.542-0.183-0.906-0.648-0.906c-0.208,0-0.415,0.116-0.658,0.334v1.29C130.084,234.088,130.302,234.159,130.464,234.159z"
							/>
						<path style="fill:#FFFFFF;" d="M132.694,233.89c0.213,0.172,0.43,0.294,0.724,0.294c0.324,0,0.486-0.172,0.486-0.385
							c0-0.253-0.293-0.364-0.562-0.465c-0.349-0.126-0.734-0.294-0.734-0.708c0-0.395,0.314-0.698,0.845-0.698
							c0.309,0,0.577,0.126,0.764,0.278l-0.197,0.263c-0.167-0.126-0.344-0.217-0.562-0.217c-0.309,0-0.45,0.167-0.45,0.354
							c0,0.228,0.268,0.319,0.546,0.425c0.354,0.131,0.749,0.278,0.749,0.744c0,0.399-0.319,0.734-0.901,0.734
							c-0.349,0-0.683-0.147-0.916-0.339L132.694,233.89z"/>
						<path style="fill:#FFFFFF;" d="M135.602,233.87c0.162,0,0.299,0.131,0.299,0.324c0,0.182-0.137,0.313-0.299,0.313
							c-0.167,0-0.304-0.132-0.304-0.313C135.299,234.002,135.435,233.87,135.602,233.87z"/>
						<path style="fill:#FFFFFF;" d="M137.367,233.87c0.162,0,0.299,0.131,0.299,0.324c0,0.182-0.137,0.313-0.299,0.313
							c-0.167,0-0.304-0.132-0.304-0.313C137.064,234.002,137.201,233.87,137.367,233.87z"/>
					</g>
				</g>
			</g>
			<g>
				<g>
					<g>
						<path style="fill:#79C9E8;" d="M101.545,370.495c0,0-2.265-2.115-0.745-10.139c1.52-8.024,5.376-15.73,3.484-24.435
							c-1.892-8.705-16.725-30.655-16.775-32.114c-0.05-1.46-4.576,25.535,3.095,36.169c7.671,10.634,8.594,14.323,8.253,19.915
							c-0.341,5.592,0.079,10.096,0.92,11.396L101.545,370.495z"/>
						<path style="fill:#49B4D6;" d="M100.141,354.356c-0.892,3.579-1.43,12.555-0.005,14.703c0.133,0.201,0.324,0.086,0.562-0.284
							c-0.434-1.484-0.719-4.084,0.102-8.419c1.52-8.024,5.376-15.73,3.484-24.435c-1.892-8.705-16.725-30.654-16.775-32.114
							c0,0,2.235,18.287,9.763,30.875C102.662,343.692,101.033,350.776,100.141,354.356z"/>
					</g>
					<g>
						<path style="fill:#79C9E8;" d="M104.25,369.937c0,0-4.358-10.88,3.028-20.3c7.385-9.42,19.197-21.516,19.432-26.308
							c0,0,3.035,22.75-6.577,29.191c-9.613,6.44-16.354,7.468-14.687,17.376L104.25,369.937z"/>
						<path style="fill:#49B4D6;" d="M114.625,347.946c-10.719,7.802-11.595,16.789-9.932,20.957
							c0.129,0.324,0.374,0.522,0.697,0.628c-1.437-9.564,5.249-10.652,14.741-17.011c9.613-6.44,6.577-29.191,6.577-29.191
							S125.344,340.145,114.625,347.946z"/>
					</g>
					<g>
						<path style="fill:#79C9E8;" d="M97.083,370.182c0,0,1.398-5.761,0.654-11.981c-0.744-6.22-7.241-9.718-13.312-16.288
							c-3.123-3.38-4.047-21.254-2.111-22.915c0,0-10.718,12.989-9.065,22.499c1.653,9.51,19.138,15.69,20.756,20.286
							c1.618,4.595,1.484,8.453,1.484,8.453L97.083,370.182z"/>
						<g>
							<path style="fill:#49B4D6;" d="M78.692,324.11c-3.543,9.593,0.089,21.211,11.856,28.427c8.663,5.313,5.904,16.36,5.904,16.36
								l1.415-4.358c0.125-1.884,0.139-4.079-0.131-6.338c-0.744-6.22-7.241-9.718-13.312-16.288
								c-3.012-3.26-3.978-19.998-2.305-22.673C81.629,319.858,80.242,321.655,78.692,324.11z"/>
							<path style="fill:#49B4D6;" d="M82.12,319.24c0.121-0.153,0.194-0.242,0.194-0.242
								C82.246,319.057,82.182,319.142,82.12,319.24z"/>
						</g>
					</g>
					<g>
						<path style="fill:#79C9E8;" d="M106.493,369.462c0,0,2.512-9.321,8.725-10.576c6.213-1.255,13.347-10.435,13.733-12.236
							C128.951,346.651,127.903,363.965,106.493,369.462z"/>
						<path style="fill:#49B4D6;" d="M114.863,361.968c-3.807,1.904-5.39,4.464-5.952,6.788c19.062-6.13,20.04-22.105,20.04-22.105
							c-0.076,0.356-0.424,1.007-0.968,1.821C126.113,351.747,121.587,358.606,114.863,361.968z"/>
					</g>
				</g>
				<path style="fill:#FFBF4D;" d="M119.937,366.03H87.442l3.859,24.27c0.293,1.841,1.88,3.196,3.744,3.196h17.289
					c1.864,0,3.451-1.355,3.744-3.196L119.937,366.03z"/>
				<polygon style="fill:#FF9F50;" points="119.299,370.045 119.937,366.03 87.442,366.03 88.081,370.045 				"/>
				<path style="fill:#FF9F50;" d="M112.065,366.03l-3.859,24.27c-0.293,1.841-1.88,3.195-3.744,3.195h7.872
					c1.864,0,3.451-1.355,3.744-3.195l3.859-24.27H112.065z"/>
			</g>
			<g>
				<rect x="197.202" y="322.747" style="fill:#FFBF4D;" width="146.863" height="29.86"/>
				<rect x="197.202" y="322.747" style="opacity:0.29;fill:#F98D2B;" width="146.863" height="7.248"/>
				<polygon style="fill:#F77E2D;" points="209.972,322.747 223.376,322.747 219.783,329.998 206.372,329.998 				"/>
				<polygon style="fill:#F77E2D;" points="240.171,322.747 253.575,322.747 249.982,329.998 236.578,329.998 				"/>
				<polygon style="fill:#F77E2D;" points="270.37,322.747 283.775,322.747 280.182,329.998 266.778,329.998 				"/>
				<polygon style="fill:#F77E2D;" points="300.57,322.747 313.967,322.747 310.374,329.998 296.977,329.998 				"/>
				<polygon style="fill:#F77E2D;" points="344.065,322.747 344.065,322.949 340.566,329.998 327.176,329.998 330.769,322.747 				
					"/>
				<rect x="215.484" y="352.61" style="fill:#79C9E8;" width="10.353" height="40.829"/>
				<rect x="223.485" y="352.61" style="fill:#49B4D6;" width="2.352" height="40.829"/>
				<rect x="316.235" y="352.61" style="fill:#79C9E8;" width="10.353" height="40.829"/>
				<rect x="323.527" y="352.61" style="fill:#49B4D6;" width="3.061" height="40.829"/>
				<rect x="215.484" y="352.578" style="fill:#49B4D6;" width="10.353" height="5.142"/>
				<rect x="316.235" y="352.578" style="fill:#49B4D6;" width="10.353" height="5.142"/>
				<rect x="215.484" y="318.082" style="fill:#79C9E8;" width="10.353" height="4.636"/>
				<rect x="223.485" y="318.082" style="fill:#49B4D6;" width="2.352" height="4.636"/>
				<rect x="316.235" y="318.082" style="fill:#79C9E8;" width="10.353" height="4.636"/>
				<rect x="323.527" y="318.082" style="fill:#49B4D6;" width="3.061" height="4.636"/>
				<rect x="215.484" y="322.138" style="fill:#49B4D6;" width="10.353" height="0.584"/>
				<rect x="316.235" y="322.138" style="fill:#49B4D6;" width="10.353" height="0.584"/>
				<g>
					<g>
						<polygon style="fill:#0582C1;" points="223.376,322.747 208.565,352.608 197.202,352.608 197.202,348.488 209.972,322.747 
													"/>
						<polygon style="fill:#0582C1;" points="240.171,322.747 225.36,352.608 238.764,352.608 253.575,322.747 						"/>
						<polygon style="fill:#0582C1;" points="283.775,322.747 268.964,352.608 255.559,352.608 270.37,322.747 						"/>
						<polygon style="fill:#0582C1;" points="313.967,322.747 299.163,352.608 285.759,352.608 300.57,322.747 						"/>
						<polygon style="fill:#0582C1;" points="330.769,322.747 315.958,352.608 329.355,352.608 344.065,322.949 						"/>
					</g>
				</g>
				<g>
					<g>
						<polygon style="fill:#00668E;" points="223.376,322.747 219.783,329.998 206.372,329.998 209.972,322.747 						"/>
						<polygon style="fill:#00668E;" points="253.575,322.747 249.982,329.998 236.578,329.998 240.171,322.747 						"/>
						<polygon style="fill:#00668E;" points="283.775,322.747 280.182,329.998 266.778,329.998 270.37,322.747 						"/>
						<polygon style="fill:#00668E;" points="313.967,322.747 310.374,329.998 296.977,329.998 300.57,322.747 						"/>
						<polygon style="fill:#00668E;" points="344.065,322.949 340.566,329.998 327.176,329.998 330.769,322.747 						"/>
					</g>
				</g>
				<linearGradient id="SVGID_1_" gradientUnits="userSpaceOnUse" x1="271.4144" y1="361.3425" x2="271.4144" y2="337.2882">
					<stop  offset="0" style="stop-color:#FFFFFF"/>
					<stop  offset="1" style="stop-color:#FFFFFF;stop-opacity:0"/>
				</linearGradient>
				<rect x="201.295" y="335.666" style="opacity:0.55;fill:url(#SVGID_1_);" width="140.24" height="14.936"/>
				
					<ellipse transform="matrix(0.987 -0.1606 0.1606 0.987 -47.1947 39.4514)" style="fill:#FFBF4D;" cx="220.39" cy="311.602" rx="9.231" ry="9.231"/>
				<path style="fill:#0582C1;" d="M224.574,311.602c0-2.31-1.873-4.183-4.183-4.183c-2.31,0-4.183,1.873-4.183,4.183
					c0,2.31,1.873,4.183,4.183,4.183C222.701,315.785,224.574,313.912,224.574,311.602z"/>
				
					<ellipse transform="matrix(0.987 -0.1606 0.1606 0.987 -45.8835 55.6701)" style="fill:#FFBF4D;" cx="321.351" cy="311.602" rx="9.231" ry="9.231"/>
				<path style="fill:#0582C1;" d="M325.534,311.602c0-2.31-1.873-4.183-4.183-4.183s-4.183,1.873-4.183,4.183
					c0,2.31,1.873,4.183,4.183,4.183S325.534,313.912,325.534,311.602z"/>
			</g>
			<g>
				<path style="fill:#FFBF4D;" d="M399.705,390.274h-46.773l7.155-17.343v-0.01l2.877-6.998l0.793-1.918l1.292-3.122l0.264-0.636
					l2.878-6.998l0.529-1.272l5.099-12.381c0.92-2.232,4.081-2.232,5.001,0l5.099,12.381l0.529,1.272l2.877,6.998l0.264,0.636
					l1.292,3.122l0.793,1.918l2.878,6.998v0.01L399.705,390.274z"/>
				<polygon style="opacity:0.29;fill:#F98D2B;" points="355.998,382.838 352.934,390.273 399.71,390.273 396.645,382.838 				"/>
				<rect x="349.195" y="385.828" style="fill:#79C9E8;" width="53.571" height="7.573"/>
				<rect x="391.191" y="385.828" style="fill:#49B4D6;" width="11.574" height="7.573"/>
				<g>
					<path style="opacity:0.29;fill:#F98D2B;" d="M397.865,385.825h-6.616l-5.315-12.89v-0.01l-2.877-6.998l-0.793-1.918
						l-1.292-3.122l-0.264-0.636l-2.877-6.998l-0.529-1.272l-4.287-10.423l0.803-1.957c0.92-2.232,4.081-2.232,5.001,0l5.099,12.381
						l0.529,1.272l2.877,6.998l0.264,0.636l1.292,3.122l0.793,1.918l2.878,6.998v0.01L397.865,385.825z"/>
					<g>
						<polygon style="fill:#0582C1;" points="387.324,360.247 365.313,360.247 368.19,353.249 384.447,353.249 						"/>
						<polygon style="fill:#0582C1;" points="392.551,372.921 392.551,372.931 360.086,372.931 360.086,372.921 362.964,365.923 
							389.673,365.923 						"/>
						<polygon style="fill:#00668E;" points="387.324,360.247 380.708,360.247 377.831,353.249 384.447,353.249 						"/>
						<polygon style="fill:#00668E;" points="392.551,372.921 392.551,372.931 385.934,372.931 385.934,372.921 383.057,365.923 
							389.673,365.923 						"/>
					</g>
				</g>
			</g>
			<g>
				<path style="fill:#D7F0F9;" d="M101.558,220.208c3.495,0,6.533-2.538,7.005-6c0.085-0.621,0.128-1.255,0.128-1.899
					c0-7.709-6.25-13.958-13.959-13.958c-0.316,0-0.629,0.014-0.94,0.035c-0.637-7.602-7.005-13.574-14.772-13.574
					c-8.19,0-14.828,6.639-14.828,14.829c0,0.363,0.018,0.722,0.043,1.079c-2.324-1.298-5.033-1.992-7.913-1.86
					c-7.448,0.341-13.568,6.299-14.095,13.737c-0.004,0.059-0.008,0.118-0.011,0.177c-0.24,4.045,3.03,7.437,7.082,7.437H101.558z"
					/>
				<path style="fill:#D7F0F9;" d="M434.692,231.172c11.038,0,11.649-16.612,0.624-17.148c-0.301-0.015-0.604-0.022-0.909-0.022
					c-1.968,0-3.863,0.312-5.641,0.883c-1.476-8.992-9.279-15.853-18.688-15.853c-9.616,0-17.553,7.167-18.774,16.451
					c-2.282-1.094-4.837-1.707-7.537-1.707c-1.508,0-2.971,0.191-4.367,0.551c-9.652,2.486-7.626,16.846,2.341,16.846H434.692z"/>
				<path style="fill:#D7F0F9;" d="M302.135,149.323c11.035,0,11.646-16.607,0.624-17.143c-0.301-0.015-0.604-0.022-0.909-0.022
					c-1.967,0-3.862,0.312-5.639,0.883c-1.475-8.989-9.276-15.848-18.682-15.848c-9.613,0-17.548,7.165-18.768,16.446
					c-2.281-1.094-4.836-1.707-7.535-1.707c-1.507,0-2.97,0.191-4.365,0.55c-9.649,2.485-7.624,16.841,2.34,16.841H302.135z"/>
				<circle style="fill:#FFBF4D;" cx="126.446" cy="153.563" r="26.455"/>
				<path style="fill:#FF9F50;" d="M126.663,127.113c7.195,4.728,11.949,12.867,11.949,22.119c0,14.611-11.844,26.455-26.455,26.455
					c-0.073,0-0.145-0.005-0.217-0.005c4.166,2.738,9.148,4.335,14.506,4.335c14.611,0,26.455-11.844,26.455-26.455
					C152.901,139.025,141.173,127.231,126.663,127.113z"/>
			</g>
		</g>
	</g>
</g>
</svg>
