<svg width="16" height="16" viewBox="0 0 16 16" fill="none" xmlns="http://www.w3.org/2000/svg">
<path d="M12.3136 11.2202L12.5736 13.3268C12.6402 13.8802 12.0469 14.2668 11.5736 13.9801L8.78022 12.3202C8.47356 12.3202 8.17356 12.3002 7.88023 12.2602C8.37356 11.6802 8.66689 10.9468 8.66689 10.1535C8.66689 8.26015 7.02689 6.72685 5.00022 6.72685C4.22689 6.72685 3.51356 6.94683 2.92023 7.3335C2.90023 7.16683 2.89355 7.00016 2.89355 6.82682C2.89355 3.79349 5.52689 1.3335 8.78022 1.3335C12.0336 1.3335 14.6669 3.79349 14.6669 6.82682C14.6669 8.62682 13.7402 10.2202 12.3136 11.2202Z" stroke="#CCCCCC" stroke-width="1.5" stroke-linecap="round" stroke-linejoin="round"/>
<path d="M8.66634 10.1532C8.66634 10.9465 8.37301 11.6799 7.87968 12.2599C7.21968 13.0599 6.17301 13.5732 4.99967 13.5732L3.25967 14.6065C2.96634 14.7865 2.59301 14.5399 2.63301 14.1999L2.79967 12.8866C1.90634 12.2666 1.33301 11.2732 1.33301 10.1532C1.33301 8.97986 1.95968 7.94654 2.91968 7.33321C3.51301 6.94654 4.22634 6.72656 4.99967 6.72656C7.02634 6.72656 8.66634 8.25987 8.66634 10.1532Z" stroke="#CCCCCC" stroke-width="1.5" stroke-linecap="round" stroke-linejoin="round"/>
</svg>
