<svg width="405" height="154" viewBox="0 0 405 154" fill="none" xmlns="http://www.w3.org/2000/svg">
<circle cx="212.5" cy="3.5" r="3.5" fill="#E7F0FC"/>
<circle cx="212.5" cy="24.5" r="3.5" fill="#E7F0FC"/>
<circle cx="212.5" cy="45.5" r="3.5" fill="#E7F0FC"/>
<circle cx="212.5" cy="66.5" r="3.5" fill="#E7F0FC"/>
<circle cx="212.5" cy="87.5" r="3.5" fill="#E7F0FC"/>
<circle cx="212.5" cy="108.5" r="3.5" fill="#E7F0FC"/>
<circle cx="212.5" cy="129.5" r="3.5" fill="#E7F0FC"/>
<circle cx="212.5" cy="150.5" r="3.5" fill="#E7F0FC"/>
<circle cx="233.5" cy="3.5" r="3.5" fill="#E7F0FC"/>
<circle cx="233.5" cy="24.5" r="3.5" fill="#E7F0FC"/>
<circle cx="233.5" cy="45.5" r="3.5" fill="#E7F0FC"/>
<circle cx="233.5" cy="66.5" r="3.5" fill="#E7F0FC"/>
<circle cx="233.5" cy="87.5" r="3.5" fill="#E7F0FC"/>
<circle cx="233.5" cy="108.5" r="3.5" fill="#E7F0FC"/>
<circle cx="233.5" cy="129.5" r="3.5" fill="#E7F0FC"/>
<circle cx="233.5" cy="150.5" r="3.5" fill="#E7F0FC"/>
<circle cx="254.5" cy="3.5" r="3.5" fill="#E7F0FC"/>
<circle cx="254.5" cy="24.5" r="3.5" fill="#E7F0FC"/>
<circle cx="254.5" cy="45.5" r="3.5" fill="#E7F0FC"/>
<circle cx="254.5" cy="66.5" r="3.5" fill="#E7F0FC"/>
<circle cx="254.5" cy="87.5" r="3.5" fill="#E7F0FC"/>
<circle cx="254.5" cy="108.5" r="3.5" fill="#E7F0FC"/>
<circle cx="254.5" cy="129.5" r="3.5" fill="#E7F0FC"/>
<circle cx="254.5" cy="150.5" r="3.5" fill="#E7F0FC"/>
<circle cx="275.5" cy="3.5" r="3.5" fill="#E7F0FC"/>
<circle cx="275.5" cy="24.5" r="3.5" fill="#E7F0FC"/>
<circle cx="275.5" cy="45.5" r="3.5" fill="#E7F0FC"/>
<circle cx="275.5" cy="66.5" r="3.5" fill="#E7F0FC"/>
<circle cx="275.5" cy="87.5" r="3.5" fill="#E7F0FC"/>
<circle cx="275.5" cy="108.5" r="3.5" fill="#E7F0FC"/>
<circle cx="275.5" cy="129.5" r="3.5" fill="#E7F0FC"/>
<circle cx="275.5" cy="150.5" r="3.5" fill="#E7F0FC"/>
<circle cx="296.5" cy="3.5" r="3.5" fill="#E7F0FC"/>
<circle cx="296.5" cy="24.5" r="3.5" fill="#E7F0FC"/>
<circle cx="296.5" cy="45.5" r="3.5" fill="#E7F0FC"/>
<circle cx="296.5" cy="66.5" r="3.5" fill="#E7F0FC"/>
<circle cx="296.5" cy="87.5" r="3.5" fill="#E7F0FC"/>
<circle cx="296.5" cy="108.5" r="3.5" fill="#E7F0FC"/>
<circle cx="296.5" cy="129.5" r="3.5" fill="#E7F0FC"/>
<circle cx="296.5" cy="150.5" r="3.5" fill="#E7F0FC"/>
<circle cx="317.5" cy="3.5" r="3.5" fill="#E7F0FC"/>
<circle cx="317.5" cy="24.5" r="3.5" fill="#E7F0FC"/>
<circle cx="317.5" cy="45.5" r="3.5" fill="#E7F0FC"/>
<circle cx="317.5" cy="66.5" r="3.5" fill="#E7F0FC"/>
<circle cx="317.5" cy="87.5" r="3.5" fill="#E7F0FC"/>
<circle cx="317.5" cy="108.5" r="3.5" fill="#E7F0FC"/>
<circle cx="317.5" cy="129.5" r="3.5" fill="#E7F0FC"/>
<circle cx="317.5" cy="150.5" r="3.5" fill="#E7F0FC"/>
<circle cx="338.5" cy="3.5" r="3.5" fill="#E7F0FC"/>
<circle cx="338.5" cy="24.5" r="3.5" fill="#E7F0FC"/>
<circle cx="338.5" cy="45.5" r="3.5" fill="#E7F0FC"/>
<circle cx="338.5" cy="66.5" r="3.5" fill="#E7F0FC"/>
<circle cx="338.5" cy="87.5" r="3.5" fill="#E7F0FC"/>
<circle cx="338.5" cy="108.5" r="3.5" fill="#E7F0FC"/>
<circle cx="338.5" cy="129.5" r="3.5" fill="#E7F0FC"/>
<circle cx="338.5" cy="150.5" r="3.5" fill="#E7F0FC"/>
<circle cx="359.5" cy="3.5" r="3.5" fill="#E7F0FC"/>
<circle cx="359.5" cy="24.5" r="3.5" fill="#E7F0FC"/>
<circle cx="359.5" cy="45.5" r="3.5" fill="#E7F0FC"/>
<circle cx="359.5" cy="66.5" r="3.5" fill="#E7F0FC"/>
<circle cx="359.5" cy="87.5" r="3.5" fill="#E7F0FC"/>
<circle cx="359.5" cy="108.5" r="3.5" fill="#E7F0FC"/>
<circle cx="359.5" cy="129.5" r="3.5" fill="#E7F0FC"/>
<circle cx="359.5" cy="150.5" r="3.5" fill="#E7F0FC"/>
<circle cx="380.5" cy="3.5" r="3.5" fill="#E7F0FC"/>
<circle cx="380.5" cy="24.5" r="3.5" fill="#E7F0FC"/>
<circle cx="380.5" cy="45.5" r="3.5" fill="#E7F0FC"/>
<circle cx="380.5" cy="66.5" r="3.5" fill="#E7F0FC"/>
<circle cx="380.5" cy="87.5" r="3.5" fill="#E7F0FC"/>
<circle cx="380.5" cy="108.5" r="3.5" fill="#E7F0FC"/>
<circle cx="380.5" cy="129.5" r="3.5" fill="#E7F0FC"/>
<circle cx="380.5" cy="150.5" r="3.5" fill="#E7F0FC"/>
<circle cx="401.5" cy="3.5" r="3.5" fill="#E7F0FC"/>
<circle cx="401.5" cy="24.5" r="3.5" fill="#E7F0FC"/>
<circle cx="401.5" cy="45.5" r="3.5" fill="#E7F0FC"/>
<circle cx="401.5" cy="66.5" r="3.5" fill="#E7F0FC"/>
<circle cx="401.5" cy="87.5" r="3.5" fill="#E7F0FC"/>
<circle cx="401.5" cy="108.5" r="3.5" fill="#E7F0FC"/>
<circle cx="401.5" cy="129.5" r="3.5" fill="#E7F0FC"/>
<circle cx="401.5" cy="150.5" r="3.5" fill="#E7F0FC"/>
<circle cx="3.5" cy="3.5" r="3.5" fill="#E7F0FC"/>
<circle cx="3.5" cy="24.5" r="3.5" fill="#E7F0FC"/>
<circle cx="3.5" cy="45.5" r="3.5" fill="#E7F0FC"/>
<circle cx="3.5" cy="66.5" r="3.5" fill="#E7F0FC"/>
<circle cx="3.5" cy="87.5" r="3.5" fill="#E7F0FC"/>
<circle cx="3.5" cy="108.5" r="3.5" fill="#E7F0FC"/>
<circle cx="3.5" cy="129.5" r="3.5" fill="#E7F0FC"/>
<circle cx="3.5" cy="150.5" r="3.5" fill="#E7F0FC"/>
<circle cx="24.5" cy="3.5" r="3.5" fill="#E7F0FC"/>
<circle cx="24.5" cy="24.5" r="3.5" fill="#E7F0FC"/>
<circle cx="24.5" cy="45.5" r="3.5" fill="#E7F0FC"/>
<circle cx="24.5" cy="66.5" r="3.5" fill="#E7F0FC"/>
<circle cx="24.5" cy="87.5" r="3.5" fill="#E7F0FC"/>
<circle cx="24.5" cy="108.5" r="3.5" fill="#E7F0FC"/>
<circle cx="24.5" cy="129.5" r="3.5" fill="#E7F0FC"/>
<circle cx="24.5" cy="150.5" r="3.5" fill="#E7F0FC"/>
<circle cx="45.5" cy="3.5" r="3.5" fill="#E7F0FC"/>
<circle cx="45.5" cy="24.5" r="3.5" fill="#E7F0FC"/>
<circle cx="45.5" cy="45.5" r="3.5" fill="#E7F0FC"/>
<circle cx="45.5" cy="66.5" r="3.5" fill="#E7F0FC"/>
<circle cx="45.5" cy="87.5" r="3.5" fill="#E7F0FC"/>
<circle cx="45.5" cy="108.5" r="3.5" fill="#E7F0FC"/>
<circle cx="45.5" cy="129.5" r="3.5" fill="#E7F0FC"/>
<circle cx="45.5" cy="150.5" r="3.5" fill="#E7F0FC"/>
<circle cx="66.5" cy="3.5" r="3.5" fill="#E7F0FC"/>
<circle cx="66.5" cy="24.5" r="3.5" fill="#E7F0FC"/>
<circle cx="66.5" cy="45.5" r="3.5" fill="#E7F0FC"/>
<circle cx="66.5" cy="66.5" r="3.5" fill="#E7F0FC"/>
<circle cx="66.5" cy="87.5" r="3.5" fill="#E7F0FC"/>
<circle cx="66.5" cy="108.5" r="3.5" fill="#E7F0FC"/>
<circle cx="66.5" cy="129.5" r="3.5" fill="#E7F0FC"/>
<circle cx="66.5" cy="150.5" r="3.5" fill="#E7F0FC"/>
<circle cx="87.5" cy="3.5" r="3.5" fill="#E7F0FC"/>
<circle cx="87.5" cy="24.5" r="3.5" fill="#E7F0FC"/>
<circle cx="87.5" cy="45.5" r="3.5" fill="#E7F0FC"/>
<circle cx="87.5" cy="66.5" r="3.5" fill="#E7F0FC"/>
<circle cx="87.5" cy="87.5" r="3.5" fill="#E7F0FC"/>
<circle cx="87.5" cy="108.5" r="3.5" fill="#E7F0FC"/>
<circle cx="87.5" cy="129.5" r="3.5" fill="#E7F0FC"/>
<circle cx="87.5" cy="150.5" r="3.5" fill="#E7F0FC"/>
<circle cx="108.5" cy="3.5" r="3.5" fill="#E7F0FC"/>
<circle cx="108.5" cy="24.5" r="3.5" fill="#E7F0FC"/>
<circle cx="108.5" cy="45.5" r="3.5" fill="#E7F0FC"/>
<circle cx="108.5" cy="66.5" r="3.5" fill="#E7F0FC"/>
<circle cx="108.5" cy="87.5" r="3.5" fill="#E7F0FC"/>
<circle cx="108.5" cy="108.5" r="3.5" fill="#E7F0FC"/>
<circle cx="108.5" cy="129.5" r="3.5" fill="#E7F0FC"/>
<circle cx="108.5" cy="150.5" r="3.5" fill="#E7F0FC"/>
<circle cx="129.5" cy="3.5" r="3.5" fill="#E7F0FC"/>
<circle cx="129.5" cy="24.5" r="3.5" fill="#E7F0FC"/>
<circle cx="129.5" cy="45.5" r="3.5" fill="#E7F0FC"/>
<circle cx="129.5" cy="66.5" r="3.5" fill="#E7F0FC"/>
<circle cx="129.5" cy="87.5" r="3.5" fill="#E7F0FC"/>
<circle cx="129.5" cy="108.5" r="3.5" fill="#E7F0FC"/>
<circle cx="129.5" cy="129.5" r="3.5" fill="#E7F0FC"/>
<circle cx="129.5" cy="150.5" r="3.5" fill="#E7F0FC"/>
<circle cx="150.5" cy="3.5" r="3.5" fill="#E7F0FC"/>
<circle cx="150.5" cy="24.5" r="3.5" fill="#E7F0FC"/>
<circle cx="150.5" cy="45.5" r="3.5" fill="#E7F0FC"/>
<circle cx="150.5" cy="66.5" r="3.5" fill="#E7F0FC"/>
<circle cx="150.5" cy="87.5" r="3.5" fill="#E7F0FC"/>
<circle cx="150.5" cy="108.5" r="3.5" fill="#E7F0FC"/>
<circle cx="150.5" cy="129.5" r="3.5" fill="#E7F0FC"/>
<circle cx="150.5" cy="150.5" r="3.5" fill="#E7F0FC"/>
<circle cx="171.5" cy="3.5" r="3.5" fill="#E7F0FC"/>
<circle cx="171.5" cy="24.5" r="3.5" fill="#E7F0FC"/>
<circle cx="171.5" cy="45.5" r="3.5" fill="#E7F0FC"/>
<circle cx="171.5" cy="66.5" r="3.5" fill="#E7F0FC"/>
<circle cx="171.5" cy="87.5" r="3.5" fill="#E7F0FC"/>
<circle cx="171.5" cy="108.5" r="3.5" fill="#E7F0FC"/>
<circle cx="171.5" cy="129.5" r="3.5" fill="#E7F0FC"/>
<circle cx="171.5" cy="150.5" r="3.5" fill="#E7F0FC"/>
<circle cx="192.5" cy="3.5" r="3.5" fill="#E7F0FC"/>
<circle cx="192.5" cy="24.5" r="3.5" fill="#E7F0FC"/>
<circle cx="192.5" cy="45.5" r="3.5" fill="#E7F0FC"/>
<circle cx="192.5" cy="66.5" r="3.5" fill="#E7F0FC"/>
<circle cx="192.5" cy="87.5" r="3.5" fill="#E7F0FC"/>
<circle cx="192.5" cy="108.5" r="3.5" fill="#E7F0FC"/>
<circle cx="192.5" cy="129.5" r="3.5" fill="#E7F0FC"/>
<circle cx="192.5" cy="150.5" r="3.5" fill="#E7F0FC"/>
</svg>
