<svg width="20" height="20" viewBox="0 0 20 20" fill="none" xmlns="http://www.w3.org/2000/svg">
<path d="M14.1338 5.1416C15.8005 6.29993 16.9505 8.1416 17.1838 10.2666" stroke="#CCCCCC" stroke-width="1.5" stroke-linecap="round" stroke-linejoin="round"/>
<path d="M2.9082 10.3081C3.12487 8.19144 4.2582 6.34977 5.9082 5.18311" stroke="#CCCCCC" stroke-width="1.5" stroke-linecap="round" stroke-linejoin="round"/>
<path d="M6.8252 17.4502C7.79186 17.9419 8.89186 18.2169 10.0502 18.2169C11.1669 18.2169 12.2169 17.9669 13.1585 17.5085" stroke="#CCCCCC" stroke-width="1.5" stroke-linecap="round" stroke-linejoin="round"/>
<path d="M10.0501 6.41654C11.3295 6.41654 12.3667 5.37933 12.3667 4.09987C12.3667 2.82041 11.3295 1.7832 10.0501 1.7832C8.77061 1.7832 7.7334 2.82041 7.7334 4.09987C7.7334 5.37933 8.77061 6.41654 10.0501 6.41654Z" stroke="#CCCCCC" stroke-width="1.5" stroke-linecap="round" stroke-linejoin="round"/>
<path d="M4.02467 16.6001C5.30413 16.6001 6.34134 15.5629 6.34134 14.2835C6.34134 13.004 5.30413 11.9668 4.02467 11.9668C2.74521 11.9668 1.70801 13.004 1.70801 14.2835C1.70801 15.5629 2.74521 16.6001 4.02467 16.6001Z" stroke="#CCCCCC" stroke-width="1.5" stroke-linecap="round" stroke-linejoin="round"/>
<path d="M15.9749 16.6001C17.2543 16.6001 18.2915 15.5629 18.2915 14.2835C18.2915 13.004 17.2543 11.9668 15.9749 11.9668C14.6954 11.9668 13.6582 13.004 13.6582 14.2835C13.6582 15.5629 14.6954 16.6001 15.9749 16.6001Z" stroke="#CCCCCC" stroke-width="1.5" stroke-linecap="round" stroke-linejoin="round"/>
</svg>
