<svg width="20" height="20" viewBox="0 0 20 20" fill="none" xmlns="http://www.w3.org/2000/svg">
<path d="M10 0C4.48609 0 0 4.48609 0 10C0 15.5139 4.48609 20 10 20C15.5139 20 20 15.5139 20 10C20 4.48609 15.5139 0 10 0ZM10 19.1304C4.96522 19.1304 0.869565 15.0348 0.869565 10C0.869565 4.96522 4.96522 0.869565 10 0.869565C15.0348 0.869565 19.1304 4.96522 19.1304 10C19.1304 15.0348 15.0348 19.1304 10 19.1304Z" fill="white"/>
<path d="M10.4347 5.21777H9.56518C8.12692 5.21777 6.95648 6.38821 6.95648 7.82647V12.1743C6.95648 13.6126 8.12692 14.783 9.56518 14.783H10.4347C11.873 14.783 13.0434 13.6126 13.0434 12.1743V11.7395C13.0434 11.4995 12.8487 11.3047 12.6087 11.3047C12.3687 11.3047 12.1739 11.4995 12.1739 11.7395V12.1743C12.1739 13.1334 11.3939 13.9134 10.4347 13.9134H9.56518C8.60605 13.9134 7.82605 13.1334 7.82605 12.1743V7.82647C7.82605 6.86734 8.60605 6.08734 9.56518 6.08734H10.4347C11.3939 6.08734 12.1739 6.86734 12.1739 7.82647V8.26125C12.1739 8.50125 12.3687 8.69603 12.6087 8.69603C12.8487 8.69603 13.0434 8.50125 13.0434 8.26125V7.82647C13.0434 6.38821 11.873 5.21777 10.4347 5.21777Z" fill="white"/>
</svg>
