<svg width="520" height="449" viewBox="0 0 520 449" fill="none" xmlns="http://www.w3.org/2000/svg">
<g clip-path="url(#clip0_103_5249)">
<path d="M400.715 378.913L281.875 448.634C281.065 449.114 280.048 449.114 279.226 448.634L191.484 397.568C189.759 396.563 189.748 394.073 191.461 393.044L206.764 383.962L312.173 323.575L400.692 374.355C402.439 375.36 402.451 377.873 400.715 378.89V378.913Z" fill="#DEF0FD"/>
<path d="M212.566 384.499L210.522 385.687C209.562 386.247 208.238 386.178 206.764 385.333L208.809 384.145C210.282 384.99 211.607 385.059 212.566 384.499Z" fill="#4A4ED3"/>
<path d="M203.03 372.744L205.074 371.556C204.115 372.115 203.533 373.292 203.521 374.971C203.521 378.342 205.874 382.443 208.809 384.134L206.764 385.322C203.841 383.631 201.465 379.518 201.477 376.16C201.477 374.48 202.071 373.304 203.03 372.744Z" fill="#222447"/>
<path d="M202.002 370.985L204.046 369.797C205.28 369.077 206.981 369.18 208.854 370.265C211.926 372.036 214.496 375.863 215.318 379.553L213.274 380.741C212.452 377.039 209.882 373.224 206.81 371.453C204.937 370.368 203.235 370.265 202.002 370.985Z" fill="#222447"/>
<path d="M206.764 385.322C208.706 386.441 210.396 386.202 211.321 384.956L212.966 385.904C211.915 388.041 209.528 388.578 206.753 386.978C203.03 384.831 200.004 379.598 200.015 375.314C200.026 371.019 203.064 369.294 206.799 371.453C209.871 373.224 212.44 377.051 213.262 380.741L211.721 379.85C210.944 377.131 209.048 374.412 206.787 373.11C203.864 371.419 201.477 372.79 201.465 376.148C201.465 379.518 203.818 383.62 206.753 385.31L206.764 385.322Z" fill="#222447"/>
<path d="M225.848 376.274L223.803 377.462C222.844 378.022 221.519 377.953 220.046 377.108L222.09 375.92C223.564 376.765 224.888 376.834 225.848 376.274Z" fill="#4A4ED3"/>
<path d="M216.312 364.519L218.356 363.331C217.397 363.891 216.814 365.068 216.803 366.747C216.803 370.117 219.155 374.218 222.09 375.909L220.046 377.097C217.123 375.406 214.747 371.294 214.759 367.935C214.759 366.256 215.352 365.079 216.312 364.519Z" fill="#222447"/>
<path d="M215.272 362.76L217.317 361.572C218.55 360.852 220.252 360.955 222.125 362.04C225.197 363.811 227.766 367.638 228.589 371.328L226.544 372.516C225.722 368.814 223.152 364.999 220.08 363.228C218.207 362.143 216.506 362.04 215.272 362.76Z" fill="#222447"/>
<path d="M220.046 377.097C221.987 378.216 223.678 377.976 224.603 376.731L226.247 377.679C225.197 379.816 222.81 380.353 220.035 378.753C216.312 376.606 213.285 371.373 213.297 367.089C213.308 362.794 216.346 361.069 220.08 363.228C223.152 364.999 225.722 368.826 226.544 372.516L225.002 371.625C224.226 368.906 222.33 366.187 220.069 364.884C217.145 363.194 214.758 364.565 214.747 367.923C214.747 371.293 217.1 375.395 220.035 377.085L220.046 377.097Z" fill="#222447"/>
<path d="M239.118 368.049L237.074 369.237C236.115 369.796 234.79 369.728 233.317 368.882L235.361 367.694C236.834 368.54 238.159 368.608 239.118 368.049Z" fill="#4A4ED3"/>
<path d="M229.582 356.305L231.626 355.117C230.667 355.676 230.085 356.853 230.073 358.532C230.073 361.903 232.426 366.004 235.361 367.695L233.317 368.883C230.393 367.192 228.018 363.079 228.029 359.721C228.029 358.041 228.623 356.865 229.582 356.305Z" fill="#222447"/>
<path d="M228.543 354.534L230.587 353.346C231.821 352.626 233.522 352.729 235.395 353.814C238.467 355.585 241.037 359.412 241.859 363.102L239.815 364.29C238.993 360.589 236.423 356.773 233.351 355.002C231.478 353.917 229.776 353.814 228.543 354.534Z" fill="#222447"/>
<path d="M233.317 368.871C235.258 369.991 236.948 369.751 237.873 368.506L239.518 369.454C238.467 371.59 236.08 372.127 233.305 370.528C229.582 368.38 226.556 363.148 226.567 358.864C226.579 354.568 229.616 352.843 233.351 355.002C236.423 356.773 238.992 360.6 239.815 364.29L238.273 363.399C237.496 360.68 235.601 357.961 233.339 356.659C230.416 354.968 228.029 356.339 228.018 359.698C228.018 363.068 230.37 367.169 233.305 368.86L233.317 368.871Z" fill="#222447"/>
<path d="M252.388 359.823L250.344 361.011C249.385 361.571 248.06 361.503 246.587 360.657L248.631 359.469C250.104 360.315 251.429 360.383 252.388 359.823Z" fill="#4A4ED3"/>
<path d="M242.853 348.08L244.897 346.892C243.937 347.451 243.355 348.628 243.344 350.307C243.344 353.678 245.696 357.779 248.631 359.47L246.587 360.658C243.663 358.967 241.288 354.854 241.299 351.495C241.299 349.816 241.893 348.639 242.853 348.08Z" fill="#222447"/>
<path d="M241.824 346.309L243.869 345.121C245.102 344.401 246.804 344.504 248.677 345.589C251.749 347.36 254.318 351.187 255.141 354.877L253.096 356.065C252.274 352.364 249.704 348.548 246.632 346.777C244.759 345.692 243.058 345.589 241.824 346.309Z" fill="#222447"/>
<path d="M246.587 360.658C248.528 361.777 250.218 361.537 251.144 360.292L252.788 361.24C251.737 363.377 249.351 363.914 246.575 362.314C242.852 360.167 239.826 354.934 239.837 350.65C239.849 346.355 242.887 344.63 246.621 346.789C249.693 348.56 252.263 352.387 253.085 356.077L251.543 355.186C250.767 352.467 248.871 349.748 246.61 348.445C243.686 346.755 241.299 348.126 241.288 351.484C241.288 354.854 243.64 358.956 246.575 360.646L246.587 360.658Z" fill="#222447"/>
<path d="M265.659 351.598L263.615 352.786C262.655 353.346 261.331 353.277 259.857 352.432L261.902 351.244C263.375 352.089 264.7 352.158 265.659 351.598Z" fill="#4A4ED3"/>
<path d="M256.134 339.854L258.178 338.666C257.219 339.226 256.637 340.402 256.625 342.082C256.625 345.452 258.978 349.553 261.913 351.244L259.869 352.432C256.945 350.741 254.57 346.629 254.581 343.27C254.581 341.591 255.175 340.414 256.134 339.854Z" fill="#222447"/>
<path d="M255.095 338.083L257.139 336.895C258.373 336.176 260.074 336.278 261.947 337.364C265.019 339.134 267.589 342.961 268.411 346.651L266.367 347.84C265.545 344.138 262.975 340.322 259.903 338.552C258.03 337.466 256.328 337.364 255.095 338.083Z" fill="#222447"/>
<path d="M259.857 352.432C261.799 353.552 263.489 353.312 264.414 352.067L266.059 353.015C265.008 355.151 262.621 355.688 259.846 354.089C256.123 351.941 253.097 346.709 253.108 342.425C253.119 338.129 256.157 336.404 259.892 338.563C262.964 340.334 265.533 344.161 266.355 347.851L264.814 346.96C264.037 344.241 262.141 341.522 259.88 340.22C256.957 338.529 254.57 339.9 254.558 343.259C254.558 346.629 256.911 350.73 259.846 352.421L259.857 352.432Z" fill="#222447"/>
<path d="M279.923 343.966L277.879 345.155C276.919 345.714 275.595 345.646 274.121 344.8L276.166 343.612C277.639 344.458 278.964 344.526 279.923 343.966Z" fill="#4A4ED3"/>
<path d="M270.387 332.223L272.431 331.035C271.472 331.594 270.889 332.771 270.878 334.45C270.878 337.821 273.231 341.922 276.166 343.613L274.121 344.801C271.198 343.11 268.822 338.997 268.834 335.639C268.834 333.959 269.428 332.783 270.387 332.223Z" fill="#222447"/>
<path d="M269.348 330.452L271.392 329.264C272.625 328.544 274.327 328.647 276.2 329.732C279.272 331.503 281.841 335.33 282.664 339.02L280.619 340.208C279.797 336.507 277.228 332.691 274.156 330.92C272.283 329.835 270.581 329.732 269.348 330.452Z" fill="#222447"/>
<path d="M274.121 344.801C276.063 345.92 277.753 345.68 278.678 344.435L280.322 345.383C279.272 347.52 276.885 348.057 274.11 346.457C270.387 344.31 267.36 339.077 267.372 334.793C267.383 330.509 270.421 328.773 274.156 330.932C277.228 332.703 279.797 336.53 280.619 340.22L279.078 339.329C278.301 336.61 276.405 333.891 274.144 332.588C271.221 330.898 268.834 332.269 268.822 335.627C268.822 338.997 271.175 343.099 274.11 344.789L274.121 344.801Z" fill="#222447"/>
<path d="M292.702 335.741L290.658 336.929C289.699 337.489 288.374 337.421 286.901 336.575L288.945 335.387C290.418 336.233 291.743 336.301 292.702 335.741Z" fill="#4A4ED3"/>
<path d="M283.166 323.998L285.21 322.81C284.251 323.369 283.669 324.546 283.657 326.225C283.657 329.595 286.01 333.697 288.945 335.387L286.901 336.576C283.977 334.885 281.602 330.772 281.613 327.413C281.613 325.734 282.207 324.557 283.166 323.998Z" fill="#222447"/>
<path d="M282.138 322.238L284.182 321.05C285.416 320.33 287.117 320.433 288.99 321.518C292.062 323.289 294.632 327.116 295.454 330.806L293.41 331.994C292.588 328.293 290.018 324.477 286.946 322.707C285.073 321.621 283.372 321.518 282.138 322.238Z" fill="#222447"/>
<path d="M286.901 336.575C288.842 337.695 290.532 337.455 291.457 336.21L293.102 337.158C292.051 339.294 289.664 339.831 286.889 338.232C283.166 336.084 280.14 330.852 280.151 326.568C280.163 322.272 283.2 320.547 286.935 322.706C290.007 324.477 292.576 328.304 293.399 331.994L291.857 331.103C291.08 328.384 289.185 325.665 286.923 324.363C284 322.672 281.613 324.043 281.602 327.402C281.602 330.772 283.954 334.873 286.889 336.564L286.901 336.575Z" fill="#222447"/>
<path d="M306.475 328.281L304.431 329.47C303.471 330.029 302.147 329.961 300.673 329.115L302.718 327.927C304.191 328.773 305.516 328.841 306.475 328.281Z" fill="#4A4ED3"/>
<path d="M296.939 316.538L298.983 315.35C298.024 315.909 297.441 317.086 297.43 318.765C297.43 322.135 299.783 326.237 302.718 327.927L300.673 329.116C297.75 327.425 295.374 323.312 295.386 319.954C295.386 318.274 295.98 317.097 296.939 316.538Z" fill="#222447"/>
<path d="M295.9 314.767L297.944 313.579C299.177 312.859 300.879 312.962 302.752 314.047C305.824 315.818 308.393 319.645 309.216 323.335L307.171 324.523C306.349 320.822 303.78 317.006 300.708 315.235C298.835 314.15 297.133 314.047 295.9 314.767Z" fill="#222447"/>
<path d="M300.673 329.116C302.615 330.235 304.305 329.995 305.23 328.75L306.874 329.698C305.824 331.835 303.437 332.372 300.662 330.772C296.939 328.625 293.912 323.392 293.924 319.108C293.935 314.813 296.973 313.088 300.708 315.247C303.78 317.018 306.349 320.845 307.171 324.535L305.63 323.644C304.853 320.925 302.957 318.206 300.696 316.903C297.772 315.213 295.386 316.584 295.374 319.942C295.374 323.312 297.727 327.414 300.662 329.104L300.673 329.116Z" fill="#222447"/>
<path d="M319.745 320.821L317.701 322.01C316.742 322.569 315.417 322.501 313.944 321.655L315.988 320.467C317.461 321.313 318.786 321.381 319.745 320.821Z" fill="#4A4ED3"/>
<path d="M310.209 309.067L312.254 307.878C311.294 308.438 310.712 309.615 310.701 311.294C310.701 314.664 313.053 318.766 315.988 320.456L313.944 321.644C311.02 319.954 308.645 315.841 308.656 312.482C308.656 310.803 309.25 309.626 310.209 309.067Z" fill="#222447"/>
<path d="M309.17 307.307L311.214 306.119C312.448 305.399 314.149 305.502 316.022 306.587C319.094 308.358 321.664 312.185 322.486 315.875L320.442 317.063C319.62 313.362 317.05 309.546 313.978 307.775C312.105 306.69 310.404 306.587 309.17 307.307Z" fill="#222447"/>
<path d="M313.944 321.644C315.885 322.764 317.575 322.524 318.5 321.279L320.145 322.227C319.094 324.363 316.707 324.9 313.932 323.301C310.209 321.153 307.183 315.921 307.194 311.637C307.206 307.341 310.244 305.616 313.978 307.775C317.05 309.546 319.62 313.373 320.442 317.063L318.9 316.172C318.124 313.453 316.228 310.734 313.967 309.432C311.043 307.741 308.656 309.112 308.645 312.471C308.645 315.841 310.997 319.942 313.932 321.633L313.944 321.644Z" fill="#222447"/>
<path d="M395.45 369.568L303.803 422.838C297.384 426.574 286.923 426.574 280.46 422.838L206.696 380.764L203.087 383.197L203.064 386.59L280.437 431.281C286.901 435.016 297.362 435.016 303.78 431.281L395.428 378.01C398.614 376.16 400.213 373.726 400.224 371.293L400.247 367.854C400.247 367.854 398.648 367.717 395.45 369.568Z" fill="url(#paint0_linear_103_5249)"/>
<path d="M395.382 361.091C401.846 364.827 401.88 370.882 395.462 374.617L303.814 427.888C297.396 431.624 286.935 431.624 280.471 427.888L203.098 383.197L212.6 376.788L318.009 316.4L395.382 361.091Z" fill="#222447"/>
<path d="M395.45 365.524L303.803 418.794C297.384 422.53 286.923 422.53 280.46 418.794L206.696 376.72L203.087 379.153L203.064 382.546L280.437 427.237C286.901 430.972 297.362 430.972 303.78 427.237L395.428 373.966C398.614 372.116 400.213 369.682 400.224 367.249L400.247 363.81C400.247 363.81 398.648 363.673 395.45 365.524Z" fill="url(#paint1_linear_103_5249)"/>
<path d="M395.382 357.047C401.846 360.783 401.88 366.838 395.462 370.573L303.814 423.844C297.396 427.58 286.935 427.58 280.471 423.844L203.098 379.153L212.6 372.744L318.009 312.356L395.382 357.047Z" fill="#222447"/>
<path d="M389.968 349.473C396.124 353.026 396.158 358.807 390.037 362.359L302.695 413.139C296.573 416.692 286.603 416.692 280.448 413.139L210.761 372.801L320.773 309.135L389.968 349.473Z" fill="white"/>
<path d="M390.049 362.359L302.706 413.139C296.585 416.692 286.615 416.692 280.459 413.139L210.773 372.801L210.75 380.844L280.437 421.182C286.592 424.735 296.562 424.735 302.683 421.182L390.026 370.402C393.063 368.631 394.582 366.324 394.594 364.004L394.617 355.962C394.617 358.281 393.086 360.6 390.049 362.359Z" fill="url(#paint2_linear_103_5249)"/>
<path d="M176.957 313.659L171.384 313.979L161.129 314.561L66.3747 378.09C66.2148 378.01 66.0778 377.908 65.9179 377.828C65.6096 377.668 65.2327 377.691 64.9358 377.885L64.3876 378.25C64.0907 378.445 63.9308 378.776 63.9422 379.13C63.9422 379.301 64.0107 379.473 64.1021 379.61C64.1249 379.644 64.1592 379.656 64.182 379.678C57.2613 385.722 64.7416 396.666 72.7701 392.793C72.7815 392.816 72.7701 392.85 72.7929 392.873C72.8843 393.01 169.82 327.847 169.82 327.847L174.445 318.674L176.957 313.693V313.659Z" fill="#DEF0FD"/>
<path d="M162.454 306.576L171.144 319.839L178.282 305.673L162.454 306.576Z" fill="#F0C6AA"/>
<path d="M175.77 310.654L178.282 305.673L172.709 305.993C173.999 307.353 175.027 308.941 175.77 310.654Z" fill="#3E3E3C"/>
<path d="M178.282 305.673L172.709 305.993L178.282 305.673Z" fill="#3E3D3D"/>
<path d="M174.799 308.746C175.164 309.363 175.496 310.003 175.77 310.654L178.282 305.673L172.709 305.993C173.508 306.839 174.205 307.753 174.787 308.746H174.799Z" fill="#222447"/>
<path d="M74.9399 384.328L171.144 319.839C170.825 314.184 167.513 309.123 162.454 306.576L66.249 371.065C71.3082 373.612 74.6201 378.673 74.9399 384.328Z" fill="url(#paint3_linear_103_5249)"/>
<path d="M74.9399 384.328C74.9399 384.328 74.8486 384.385 74.6887 384.476C66.3976 389.24 58.312 377.748 65.621 371.567C65.8151 371.396 66.0321 371.236 66.2491 371.064C71.3083 373.612 74.6202 378.673 74.9399 384.328Z" fill="url(#paint4_linear_103_5249)"/>
<path d="M65.2669 371.122C65.2669 371.293 65.3355 371.464 65.4268 371.601C65.5182 371.739 65.6438 371.864 65.8037 371.944C68.1334 373.121 70.1206 374.892 71.5481 377.074C72.9756 379.256 73.8093 381.78 73.9578 384.385C73.9578 384.556 74.0263 384.728 74.1177 384.865C74.209 385.002 74.3346 385.128 74.4945 385.208C74.8029 385.367 75.1797 385.345 75.4767 385.15L76.0248 384.785C76.3218 384.591 76.4816 384.259 76.4702 383.905C76.2989 380.958 75.3625 378.09 73.7408 375.623C72.1191 373.155 69.8693 371.145 67.2426 369.819C66.9343 369.659 66.5574 369.682 66.2605 369.876L65.7123 370.242C65.4154 370.436 65.2555 370.767 65.2669 371.122Z" fill="#222447"/>
<path d="M215.798 313.488L210.361 314.733L200.346 317.029L117.572 395.535C117.4 395.478 117.252 395.398 117.081 395.353C116.749 395.25 116.384 395.33 116.121 395.57L115.642 396.015C115.39 396.255 115.276 396.609 115.356 396.952C115.39 397.123 115.482 397.272 115.596 397.398C115.619 397.42 115.653 397.432 115.687 397.455C109.874 404.572 119.079 414.1 126.354 408.947C126.377 408.97 126.377 409.004 126.388 409.027C126.502 409.153 211.149 328.659 211.149 328.659L214.176 318.834L215.82 313.499L215.798 313.488Z" fill="#DEF0FD"/>
<path d="M197.594 309.992L208.42 321.576L213.045 306.405L197.594 309.992Z" fill="#F0C6AA"/>
<path d="M211.412 311.751L213.034 306.416L207.598 307.673C209.094 308.792 210.384 310.175 211.401 311.751H211.412Z" fill="#3E3E3C"/>
<path d="M213.045 306.405L207.609 307.673L213.045 306.405Z" fill="#3E3D3D"/>
<path d="M210.133 310.026C210.601 310.563 211.024 311.146 211.424 311.74L213.045 306.405L207.609 307.661C208.534 308.358 209.379 309.147 210.133 310.026Z" fill="#222447"/>
<path d="M124.584 401.499L208.42 321.576C207.141 316.058 203.018 311.637 197.605 309.992L113.769 389.915C119.182 391.571 123.316 395.981 124.584 401.51V401.499Z" fill="url(#paint5_linear_103_5249)"/>
<path d="M124.584 401.499C124.584 401.499 124.504 401.567 124.367 401.682C117.012 407.782 107.088 397.832 113.232 390.509C113.403 390.315 113.575 390.109 113.769 389.903C119.182 391.56 123.316 395.97 124.584 401.499Z" fill="url(#paint6_linear_103_5249)"/>
<path d="M112.809 390.132C112.844 390.303 112.935 390.452 113.049 390.577C113.163 390.703 113.312 390.794 113.483 390.852C115.973 391.617 118.234 393.022 120.016 394.93C121.797 396.838 123.042 399.191 123.636 401.727C123.67 401.899 123.762 402.047 123.876 402.173C123.99 402.298 124.138 402.39 124.31 402.447C124.641 402.55 125.006 402.47 125.269 402.23L125.749 401.784C126 401.545 126.114 401.19 126.034 400.848C125.372 397.969 123.956 395.307 121.934 393.159C119.924 391 117.366 389.412 114.545 388.544C114.214 388.441 113.849 388.521 113.586 388.761L113.106 389.207C112.855 389.446 112.741 389.801 112.821 390.143L112.809 390.132Z" fill="#222447"/>
<path d="M508.957 312.185C508.957 312.185 476.957 328.602 460.843 338.255C459.872 331.298 449.971 325.825 437.865 325.825C432.212 325.825 427.039 327.025 423.019 329.013C420.883 326.534 418.371 324.443 415.55 322.752C417.149 320.902 418.074 318.823 418.074 316.606C418.074 309.124 407.75 303.057 395.005 303.057L451.364 267.174L443.964 263.37L381.198 302.966C373.512 307.444 371.936 311.877 371.936 316.606C371.936 324.089 382.26 330.155 395.005 330.155C401.126 330.155 406.677 328.75 410.799 326.465C410.902 326.534 410.959 326.637 411.085 326.694C413.826 328.11 416.281 329.938 418.325 332.189C416.098 334.268 414.796 336.724 414.796 339.374C414.796 346.857 425.12 352.923 437.865 352.923C445.3 352.923 452.598 351.815 456.812 348.605L517.373 315.818L508.957 312.208V312.185Z" fill="#DEF0FD"/>
<path d="M515.032 315.532C514.758 315.087 514.461 314.676 514.164 314.287C514.061 314.162 513.947 314.047 513.844 313.922C513.627 313.67 513.422 313.419 513.193 313.202C513.056 313.065 512.919 312.951 512.782 312.825C512.565 312.631 512.36 312.437 512.131 312.265C511.971 312.14 511.812 312.037 511.652 311.922C511.435 311.763 511.206 311.614 510.978 311.477C509.824 310.769 508.545 310.289 507.186 310.015C507.655 310.552 508.1 311.111 508.488 311.751C508.614 311.957 508.774 312.105 508.956 312.208L515.5 316.012C515.5 316.012 515.5 316.012 515.489 316.001C515.318 315.898 515.158 315.75 515.032 315.555V315.532Z" fill="url(#paint7_linear_103_5249)"/>
<path d="M464.063 328.83C464.006 328.762 463.961 328.682 463.915 328.602C463.881 328.556 463.846 328.51 463.824 328.453C463.778 328.362 463.755 328.247 463.721 328.133C463.709 328.076 463.686 328.03 463.664 327.973C463.629 327.802 463.607 327.608 463.607 327.391C463.607 325.711 464.783 323.678 466.245 322.844L493.756 306.953C494.635 306.439 495.515 306.005 496.383 305.594C496.611 305.479 496.84 305.376 497.068 305.274C497.833 304.931 498.587 304.623 499.341 304.36C499.443 304.325 499.558 304.28 499.66 304.234C500.494 303.948 501.316 303.72 502.139 303.526C502.344 303.48 502.55 303.434 502.755 303.389C503.429 303.252 504.103 303.137 504.754 303.069C504.902 303.046 505.062 303.023 505.211 303.012C505.987 302.943 506.741 302.92 507.483 302.943C507.655 302.943 507.826 302.966 507.997 302.977C508.602 303.012 509.196 303.08 509.779 303.183C509.939 303.217 510.11 303.229 510.27 303.263C510.966 303.412 511.64 303.594 512.28 303.834C512.405 303.88 512.531 303.937 512.657 303.994C513.193 304.211 513.719 304.451 514.221 304.737C514.313 304.782 514.415 304.817 514.507 304.874L507.963 301.07C502.55 297.917 495.127 298.556 487.201 303.137L459.689 319.028C458.228 319.874 457.051 321.907 457.051 323.575C457.051 324.409 457.348 324.98 457.816 325.254L464.36 329.059C464.292 329.024 464.246 328.967 464.178 328.91C464.132 328.876 464.086 328.842 464.04 328.796L464.063 328.83Z" fill="url(#paint8_linear_103_5249)"/>
<path d="M519.692 310.026C518.241 307.695 516.391 305.948 514.233 304.771C513.73 304.497 513.205 304.245 512.668 304.028C512.542 303.983 512.417 303.914 512.291 303.868C511.64 303.628 510.966 303.446 510.281 303.297C510.121 303.263 509.95 303.24 509.79 303.217C509.208 303.114 508.614 303.046 508.009 303.012C507.837 303.012 507.666 302.989 507.495 302.977C506.752 302.954 505.999 302.977 505.222 303.046C505.074 303.057 504.914 303.092 504.765 303.103C504.114 303.172 503.44 303.286 502.767 303.423C502.561 303.469 502.356 303.503 502.15 303.56C501.339 303.754 500.517 303.983 499.672 304.268C499.569 304.303 499.455 304.348 499.352 304.394C498.598 304.657 497.845 304.965 497.079 305.308C496.851 305.411 496.623 305.513 496.394 305.628C495.526 306.039 494.658 306.485 493.767 306.987L466.256 322.878C464.794 323.723 463.618 325.757 463.618 327.425C463.618 327.63 463.641 327.825 463.675 328.007C463.686 328.065 463.709 328.11 463.732 328.167C463.766 328.282 463.789 328.384 463.835 328.487C463.858 328.544 463.903 328.59 463.926 328.636C463.972 328.716 464.018 328.796 464.075 328.864C464.109 328.91 464.166 328.933 464.212 328.979C464.703 329.401 465.434 329.424 466.279 328.944L493.79 313.053C498.667 310.232 503.303 309.261 507.198 310.026C508.568 310.3 509.836 310.78 510.989 311.488C511.218 311.625 511.435 311.785 511.663 311.934C511.823 312.048 511.983 312.162 512.143 312.277C512.36 312.448 512.577 312.642 512.794 312.836C512.931 312.962 513.079 313.088 513.205 313.213C513.433 313.442 513.639 313.693 513.856 313.933C513.959 314.059 514.073 314.173 514.176 314.299C514.484 314.687 514.769 315.098 515.043 315.544C515.169 315.738 515.318 315.887 515.5 315.989C516.003 316.286 516.688 316.218 517.385 315.818C517.796 315.578 518.218 315.235 518.607 314.767C519.897 313.248 520.388 311.123 519.703 310.037L519.692 310.026Z" fill="#222447"/>
<path d="M448.954 267.46C448.68 267.015 448.383 266.603 448.086 266.215C447.984 266.089 447.869 265.975 447.767 265.849C447.55 265.598 447.344 265.347 447.116 265.13C446.979 264.993 446.842 264.878 446.705 264.753C446.488 264.559 446.282 264.364 446.054 264.193C445.894 264.067 445.734 263.964 445.574 263.85C445.357 263.69 445.129 263.542 444.9 263.405C443.747 262.696 442.468 262.217 441.109 261.942C441.577 262.479 442.022 263.039 442.411 263.679C442.536 263.884 442.696 264.033 442.879 264.136L449.423 267.94C449.423 267.94 449.423 267.94 449.411 267.929C449.24 267.826 449.08 267.677 448.954 267.483V267.46Z" fill="url(#paint9_linear_103_5249)"/>
<path d="M397.997 280.769C397.94 280.701 397.894 280.621 397.849 280.541C397.814 280.495 397.78 280.449 397.757 280.392C397.712 280.301 397.689 280.186 397.654 280.072C397.643 280.015 397.62 279.969 397.609 279.912C397.574 279.741 397.552 279.547 397.552 279.33C397.552 277.65 398.728 275.617 400.19 274.783L427.701 258.892C428.581 258.378 429.46 257.944 430.328 257.533C430.556 257.418 430.785 257.315 431.013 257.213C431.778 256.87 432.532 256.561 433.286 256.299C433.388 256.264 433.503 256.219 433.605 256.173C434.439 255.887 435.261 255.659 436.084 255.465C436.289 255.419 436.495 255.373 436.7 255.328C437.374 255.191 438.048 255.076 438.699 255.008C438.847 254.985 439.007 254.962 439.156 254.951C439.932 254.882 440.686 254.859 441.428 254.882C441.6 254.882 441.771 254.905 441.942 254.916C442.548 254.951 443.141 255.019 443.724 255.122C443.884 255.156 444.055 255.168 444.215 255.202C444.912 255.351 445.585 255.533 446.236 255.773C446.362 255.819 446.488 255.876 446.613 255.933C447.15 256.15 447.675 256.39 448.178 256.676C448.269 256.721 448.372 256.756 448.463 256.813L441.919 253.009C436.506 249.856 429.083 250.495 421.157 255.076L393.646 270.967C392.184 271.813 391.008 273.846 391.008 275.514C391.008 276.348 391.305 276.919 391.773 277.193L398.317 280.998C398.248 280.963 398.203 280.906 398.134 280.849C398.088 280.815 398.043 280.78 397.997 280.735V280.769Z" fill="url(#paint10_linear_103_5249)"/>
<path d="M453.625 261.954C452.175 259.623 450.325 257.875 448.166 256.699C447.664 256.424 447.139 256.173 446.602 255.956C446.476 255.91 446.351 255.842 446.225 255.796C445.574 255.556 444.9 255.373 444.204 255.225C444.044 255.191 443.872 255.168 443.713 255.145C443.13 255.042 442.536 254.974 441.931 254.939C441.76 254.939 441.588 254.916 441.417 254.905C440.675 254.882 439.921 254.905 439.144 254.974C438.996 254.985 438.836 255.019 438.688 255.031C438.037 255.099 437.363 255.214 436.689 255.351C436.483 255.396 436.278 255.431 436.072 255.488C435.261 255.682 434.439 255.91 433.594 256.196C433.491 256.23 433.377 256.276 433.274 256.322C432.521 256.584 431.767 256.893 431.002 257.236C430.773 257.338 430.545 257.441 430.316 257.555C429.449 257.967 428.581 258.412 427.69 258.915L400.178 274.806C398.717 275.651 397.54 277.685 397.54 279.353C397.54 279.558 397.563 279.752 397.597 279.935C397.609 279.992 397.632 280.038 397.643 280.095C397.677 280.209 397.7 280.312 397.746 280.415C397.769 280.472 397.814 280.518 397.837 280.563C397.883 280.643 397.929 280.723 397.986 280.792C398.02 280.838 398.077 280.861 398.123 280.906C398.614 281.329 399.345 281.352 400.19 280.872L427.701 264.981C432.578 262.159 437.214 261.188 441.109 261.954C442.479 262.228 443.747 262.708 444.9 263.416C445.129 263.553 445.346 263.713 445.574 263.862C445.734 263.976 445.894 264.09 446.054 264.204C446.271 264.376 446.488 264.57 446.705 264.764C446.842 264.89 446.99 265.015 447.116 265.141C447.344 265.369 447.55 265.621 447.767 265.861C447.869 265.986 447.984 266.101 448.086 266.226C448.395 266.615 448.68 267.026 448.954 267.472C449.08 267.666 449.228 267.814 449.411 267.917C449.914 268.214 450.599 268.146 451.296 267.746C451.707 267.506 452.129 267.163 452.518 266.695C453.808 265.175 454.299 263.05 453.614 261.965L453.625 261.954Z" fill="#222447"/>
<path d="M380.512 283.454C380.444 283.785 380.41 284.139 380.364 284.482C380.364 284.482 380.364 284.493 380.364 284.505C380.41 284.15 380.455 283.785 380.524 283.454H380.512Z" fill="#508CC9"/>
<path d="M381.917 279.855C381.803 280.038 381.7 280.243 381.586 280.438C381.586 280.438 381.586 280.438 381.586 280.449C381.7 280.243 381.803 280.038 381.917 279.855Z" fill="#508CC9"/>
<path d="M382.614 278.941C382.477 279.101 382.351 279.273 382.226 279.444C382.226 279.444 382.226 279.444 382.226 279.455C382.351 279.284 382.477 279.101 382.625 278.941H382.614Z" fill="#508CC9"/>
<path d="M380.855 282.117C380.775 282.357 380.718 282.631 380.65 282.883C380.65 282.883 380.65 282.894 380.65 282.905C380.718 282.643 380.775 282.369 380.855 282.117Z" fill="#508CC9"/>
<path d="M381.323 280.918C381.232 281.123 381.152 281.352 381.061 281.569C381.061 281.569 381.061 281.569 381.061 281.58C381.152 281.352 381.221 281.123 381.323 280.906V280.918Z" fill="#508CC9"/>
<path d="M383.413 278.165C383.254 278.29 383.117 278.439 382.979 278.587C383.128 278.439 383.265 278.29 383.425 278.165H383.413Z" fill="#508CC9"/>
<path d="M380.296 284.916C380.25 285.43 380.216 285.956 380.216 286.504C380.216 285.956 380.238 285.419 380.296 284.916Z" fill="#508CC9"/>
<path d="M386.383 276.771C386.211 276.805 386.051 276.862 385.892 276.908C386.063 276.862 386.223 276.805 386.394 276.771H386.383Z" fill="#508CC9"/>
<path d="M387.536 276.633C387.365 276.633 387.193 276.679 387.022 276.691C387.022 276.691 387.022 276.691 387.011 276.691C387.182 276.668 387.353 276.633 387.536 276.622V276.633Z" fill="#508CC9"/>
<path d="M385.309 277.079C385.149 277.136 385.001 277.228 384.852 277.296C384.852 277.296 384.852 277.296 384.841 277.296C385.001 277.228 385.149 277.136 385.32 277.079H385.309Z" fill="#508CC9"/>
<path d="M384.316 277.548C384.144 277.65 383.996 277.765 383.836 277.879C383.836 277.879 383.836 277.879 383.824 277.879C383.984 277.765 384.144 277.639 384.327 277.536L384.316 277.548Z" fill="#508CC9"/>
<path d="M412.832 310.266C412.786 310.449 412.741 310.609 412.695 310.791C412.604 311.145 412.501 311.511 412.387 311.842C412.318 312.037 412.238 312.219 412.17 312.414C412.055 312.711 411.941 312.996 411.816 313.282C411.724 313.476 411.633 313.647 411.53 313.83C411.393 314.081 411.256 314.333 411.107 314.573C411.005 314.744 410.89 314.915 410.776 315.075C410.616 315.304 410.457 315.509 410.285 315.715C410.16 315.864 410.034 316.012 409.908 316.161C409.726 316.355 409.543 316.538 409.349 316.72C409.212 316.846 409.075 316.972 408.938 317.086C408.732 317.257 408.515 317.406 408.298 317.554C408.15 317.657 408.013 317.76 407.864 317.851C407.818 317.874 407.773 317.92 407.727 317.943L414.271 314.139C415.527 313.407 416.601 312.356 417.48 311.043L413.163 308.552C413.083 309.146 412.98 309.718 412.855 310.266H412.832Z" fill="#222447"/>
<path d="M381.963 270.487C382.226 270.396 382.5 270.327 382.762 270.259C382.991 270.19 383.208 270.11 383.448 270.065C383.733 270.008 384.019 269.985 384.316 269.95C384.555 269.928 384.795 269.87 385.035 269.859C385.332 269.848 385.652 269.859 385.96 269.882C386.211 269.882 386.463 269.882 386.714 269.905C387.045 269.939 387.376 270.008 387.719 270.053C387.97 270.099 388.221 270.11 388.484 270.167C388.849 270.247 389.226 270.373 389.603 270.476C389.843 270.544 390.083 270.59 390.323 270.682C390.745 270.83 391.191 271.013 391.625 271.207C391.83 271.298 392.036 271.356 392.241 271.458C392.892 271.755 393.543 272.098 394.206 272.475C403.901 278.073 411.884 291.005 413.152 302.486L421.911 307.547C422.242 305.022 423.007 302.909 424.115 301.241L419.696 298.682C418.439 287.201 410.445 274.269 400.749 268.671C395.416 265.586 390.585 265.312 387.091 267.346L380.547 271.15C380.547 271.15 380.57 271.15 380.581 271.139C380.81 271.001 381.072 270.91 381.312 270.796C381.529 270.693 381.735 270.579 381.952 270.499L381.963 270.487Z" fill="#222447"/>
<path d="M427.039 311.911C426.993 312.425 426.959 312.951 426.959 313.499C426.959 312.951 426.982 312.414 427.039 311.911Z" fill="#508CC9"/>
<path d="M428.078 307.924C427.975 308.141 427.895 308.37 427.815 308.598C427.815 308.598 427.815 308.598 427.815 308.609C427.907 308.381 427.987 308.13 428.09 307.913L428.078 307.924Z" fill="#508CC9"/>
<path d="M434.291 303.629C434.119 303.629 433.96 303.674 433.788 303.686C433.788 303.686 433.777 303.686 433.765 303.686C433.937 303.663 434.108 303.629 434.291 303.617V303.629Z" fill="#508CC9"/>
<path d="M431.07 304.554C430.91 304.645 430.762 304.771 430.602 304.874C430.602 304.874 430.602 304.874 430.591 304.874C430.75 304.76 430.91 304.645 431.07 304.542V304.554Z" fill="#508CC9"/>
<path d="M432.064 304.085C431.904 304.143 431.767 304.223 431.607 304.303C431.607 304.303 431.607 304.303 431.595 304.303C431.755 304.234 431.904 304.143 432.064 304.085Z" fill="#508CC9"/>
<path d="M428.661 306.861C428.546 307.044 428.444 307.25 428.341 307.444C428.341 307.444 428.341 307.444 428.341 307.455C428.444 307.261 428.546 307.044 428.672 306.861H428.661Z" fill="#508CC9"/>
<path d="M430.168 305.171C430.02 305.297 429.883 305.434 429.745 305.571C429.745 305.571 429.734 305.582 429.723 305.594C429.871 305.456 430.008 305.297 430.168 305.171Z" fill="#508CC9"/>
<path d="M428.432 321.518C428.101 320.559 427.804 319.588 427.576 318.617C427.804 319.576 428.09 320.547 428.432 321.518Z" fill="#508CC9"/>
<path d="M436.723 334.462C435.855 333.651 435.022 332.76 434.234 331.8C435.022 332.748 435.855 333.64 436.723 334.462Z" fill="#508CC9"/>
<path d="M429.369 305.948C429.231 306.096 429.117 306.268 428.992 306.439C428.992 306.439 428.992 306.45 428.98 306.462C429.106 306.29 429.231 306.108 429.369 305.959V305.948Z" fill="#508CC9"/>
<path d="M427.256 310.449C427.199 310.757 427.153 311.088 427.119 311.42C427.119 311.443 427.119 311.454 427.119 311.477C427.165 311.134 427.199 310.78 427.267 310.46L427.256 310.449Z" fill="#508CC9"/>
<path d="M427.61 309.124C427.53 309.375 427.473 309.638 427.404 309.9C427.404 309.923 427.404 309.935 427.393 309.958C427.461 309.672 427.518 309.386 427.61 309.124Z" fill="#508CC9"/>
<path d="M430.533 326.294C429.882 325.094 429.311 323.861 428.832 322.604C429.323 323.861 429.894 325.094 430.533 326.294Z" fill="#508CC9"/>
<path d="M433.137 303.777C432.966 303.811 432.818 303.868 432.658 303.914C432.658 303.914 432.658 303.914 432.646 303.914C432.818 303.868 432.977 303.811 433.149 303.777H433.137Z" fill="#508CC9"/>
<path opacity="0.53" d="M454.836 329.607C454.859 320.764 448.635 309.969 440.949 305.525C440.469 305.251 439.989 304.999 439.521 304.782C439.384 304.714 439.247 304.679 439.11 304.622C439.11 304.622 439.133 304.622 439.144 304.634C438.802 304.485 438.47 304.348 438.139 304.234C437.957 304.165 437.774 304.131 437.591 304.074C437.614 304.074 437.625 304.074 437.648 304.085C437.363 304.005 437.077 303.914 436.803 303.845C436.609 303.8 436.426 303.788 436.244 303.754C436.255 303.754 436.266 303.754 436.289 303.754C436.038 303.708 435.775 303.663 435.524 303.64C435.341 303.628 435.159 303.64 434.976 303.628C434.976 303.628 434.999 303.628 435.01 303.628C434.77 303.628 434.542 303.606 434.313 303.617C434.131 303.617 433.959 303.663 433.788 303.686C433.788 303.686 433.8 303.686 433.811 303.686C433.594 303.708 433.366 303.72 433.16 303.765C432.989 303.8 432.829 303.857 432.658 303.903C432.658 303.903 432.658 303.903 432.669 303.903C432.475 303.96 432.269 304.005 432.075 304.074C431.915 304.131 431.767 304.222 431.607 304.291C431.607 304.291 431.607 304.291 431.618 304.291C431.436 304.371 431.253 304.451 431.082 304.554C430.91 304.657 430.762 304.771 430.602 304.885C430.465 304.976 430.316 305.068 430.191 305.171C430.031 305.296 429.894 305.445 429.745 305.593C429.62 305.708 429.494 305.81 429.38 305.947C429.243 306.107 429.117 306.279 428.992 306.45C428.889 306.587 428.775 306.713 428.683 306.861C428.558 307.044 428.466 307.25 428.352 307.455C428.272 307.615 428.169 307.753 428.089 307.924C427.987 308.141 427.907 308.381 427.815 308.621C427.747 308.792 427.678 308.952 427.621 309.123C427.541 309.386 427.473 309.672 427.404 309.957C427.359 310.129 427.313 310.289 427.279 310.46C427.21 310.78 427.176 311.134 427.13 311.477C427.107 311.625 427.084 311.762 427.062 311.922C427.016 312.436 426.982 312.962 426.982 313.51C426.982 314.618 427.073 315.749 427.256 316.892C427.347 317.463 427.461 318.046 427.598 318.628C427.827 319.588 428.112 320.559 428.455 321.53C428.581 321.895 428.706 322.25 428.855 322.615C429.346 323.872 429.917 325.106 430.556 326.305C431.31 327.71 432.155 329.081 433.103 330.349C433.468 330.852 433.857 331.343 434.245 331.812C435.033 332.76 435.867 333.651 436.735 334.473C438.037 335.696 439.43 336.758 440.869 337.581C448.555 342.025 454.824 338.438 454.847 329.607H454.836Z" fill="#DEF0FD"/>
<path d="M447.504 295.677C442.182 292.604 437.363 292.33 433.88 294.352L427.336 298.156C427.461 298.088 427.598 298.031 427.735 297.962C427.998 297.825 428.249 297.699 428.523 297.585C428.718 297.505 428.912 297.448 429.106 297.379C429.38 297.288 429.654 297.208 429.928 297.14C430.134 297.094 430.351 297.048 430.568 297.014C430.853 296.968 431.139 296.922 431.436 296.9C431.664 296.877 431.881 296.865 432.121 296.865C432.429 296.865 432.737 296.865 433.046 296.888C433.274 296.9 433.514 296.911 433.754 296.945C434.074 296.98 434.405 297.037 434.747 297.094C434.987 297.139 435.227 297.174 435.467 297.231C435.821 297.311 436.175 297.425 436.54 297.528C436.78 297.596 437.009 297.665 437.248 297.745C437.648 297.882 438.059 298.065 438.47 298.236C438.676 298.328 438.87 298.396 439.076 298.488C439.692 298.773 440.332 299.104 440.96 299.47C451.558 305.593 460.146 320.467 460.101 332.645C460.101 333.399 460.066 334.131 459.998 334.827C459.975 335.056 459.929 335.262 459.906 335.479C459.849 335.936 459.792 336.404 459.701 336.838C459.655 337.089 459.575 337.307 459.518 337.546C459.427 337.923 459.335 338.323 459.221 338.677C459.141 338.917 459.038 339.134 458.947 339.374C458.821 339.694 458.707 340.025 458.57 340.334C458.467 340.562 458.33 340.768 458.216 340.985C458.068 341.259 457.931 341.545 457.759 341.796C457.622 342.002 457.462 342.185 457.314 342.379C457.143 342.607 456.983 342.847 456.789 343.064C456.629 343.247 456.446 343.396 456.275 343.555C456.081 343.75 455.886 343.955 455.681 344.127C455.498 344.275 455.293 344.389 455.11 344.527C454.904 344.675 454.699 344.835 454.482 344.961L461.026 341.156C464.474 339.157 466.61 334.896 466.633 328.853C466.667 316.675 458.079 301.801 447.492 295.677H447.504Z" fill="#222447"/>
<path d="M456.298 343.544C456.469 343.384 456.652 343.236 456.812 343.053C456.994 342.847 457.166 342.596 457.337 342.368C457.485 342.173 457.645 341.991 457.782 341.785C457.942 341.534 458.091 341.248 458.239 340.974C458.353 340.757 458.49 340.551 458.593 340.323C458.73 340.026 458.844 339.683 458.97 339.363C459.061 339.134 459.164 338.917 459.244 338.666C459.358 338.312 459.45 337.924 459.541 337.535C459.598 337.295 459.678 337.078 459.724 336.827C459.815 336.393 459.861 335.924 459.929 335.467C459.952 335.25 459.998 335.045 460.021 334.816C460.089 334.119 460.123 333.388 460.123 332.634C460.158 320.456 451.57 305.582 440.983 299.459C440.343 299.093 439.715 298.773 439.099 298.476C438.893 298.385 438.699 298.305 438.493 298.225C438.082 298.054 437.671 297.871 437.271 297.734C437.032 297.654 436.803 297.585 436.563 297.517C436.198 297.402 435.844 297.3 435.49 297.22C435.25 297.162 435.01 297.128 434.77 297.082C434.439 297.025 434.108 296.968 433.777 296.934C433.537 296.911 433.309 296.9 433.069 296.877C432.76 296.865 432.452 296.854 432.144 296.854C431.915 296.854 431.687 296.877 431.458 296.888C431.162 296.911 430.876 296.945 430.591 297.003C430.374 297.037 430.157 297.071 429.951 297.128C429.666 297.197 429.391 297.277 429.129 297.368C428.935 297.437 428.74 297.494 428.546 297.574C428.272 297.688 428.021 297.814 427.758 297.951C426.331 298.693 425.097 299.779 424.138 301.229C423.03 302.897 422.265 305.011 421.934 307.536L413.175 302.475C411.918 290.993 403.924 278.061 394.228 272.464C393.566 272.075 392.904 271.744 392.264 271.447C392.059 271.356 391.853 271.287 391.647 271.196C391.213 271.013 390.779 270.819 390.345 270.67C390.106 270.59 389.866 270.533 389.626 270.464C389.249 270.35 388.872 270.236 388.507 270.156C388.244 270.099 387.993 270.076 387.742 270.042C387.41 269.985 387.068 269.916 386.737 269.893C386.474 269.87 386.234 269.893 385.983 269.87C385.675 269.87 385.355 269.836 385.058 269.848C384.807 269.859 384.578 269.905 384.338 269.939C384.053 269.973 383.756 269.996 383.47 270.053C383.231 270.099 383.014 270.179 382.785 270.247C382.523 270.327 382.237 270.384 381.986 270.476C381.769 270.556 381.563 270.67 381.346 270.773C381.106 270.887 380.844 270.99 380.615 271.116C377.144 273.115 374.985 277.376 374.974 283.442C374.939 295.609 383.528 310.483 394.114 316.606C399.505 319.725 404.381 319.953 407.876 317.84C408.024 317.749 408.161 317.646 408.31 317.543C408.527 317.394 408.744 317.246 408.949 317.075C409.098 316.96 409.223 316.835 409.36 316.709C409.554 316.538 409.737 316.355 409.92 316.149C410.045 316.012 410.171 315.864 410.297 315.704C410.468 315.498 410.628 315.281 410.788 315.064C410.902 314.904 411.016 314.733 411.119 314.561C411.267 314.321 411.404 314.07 411.541 313.819C411.633 313.636 411.736 313.453 411.827 313.27C411.953 312.996 412.067 312.699 412.181 312.402C412.25 312.208 412.329 312.025 412.398 311.831C412.512 311.488 412.604 311.134 412.706 310.78C412.752 310.609 412.809 310.437 412.843 310.254C412.969 309.706 413.072 309.135 413.152 308.541L417.469 311.031L421.9 313.59C423.156 325.071 431.15 338.004 440.846 343.601C446.51 346.88 451.604 346.96 455.133 344.492C455.327 344.355 455.521 344.241 455.704 344.093C455.909 343.921 456.103 343.716 456.298 343.521V343.544ZM394.103 310.574C393.143 310.015 392.207 309.363 391.293 308.632C388.575 306.416 386.143 303.457 384.258 300.19C383.63 299.105 383.059 297.974 382.568 296.831C382.066 295.689 381.643 294.535 381.289 293.37C381.118 292.787 380.958 292.204 380.821 291.633C380.421 289.897 380.204 288.172 380.204 286.515C380.204 285.967 380.227 285.43 380.284 284.927C380.296 284.779 380.33 284.642 380.353 284.493C380.398 284.139 380.433 283.796 380.501 283.465C380.535 283.271 380.604 283.088 380.65 282.905C380.718 282.642 380.775 282.38 380.855 282.14C380.912 281.946 380.992 281.774 381.072 281.591C381.152 281.374 381.232 281.146 381.335 280.94C381.415 280.769 381.506 280.62 381.598 280.46C381.7 280.266 381.803 280.061 381.929 279.878C382.02 279.729 382.134 279.604 382.237 279.467C382.363 279.295 382.488 279.112 382.625 278.964C382.74 278.838 382.865 278.724 382.991 278.61C383.139 278.473 383.276 278.313 383.425 278.187C383.55 278.084 383.699 277.993 383.836 277.901C383.996 277.787 384.156 277.662 384.316 277.57C384.487 277.467 384.67 277.399 384.852 277.319C385.001 277.25 385.149 277.159 385.309 277.102C385.492 277.033 385.697 276.988 385.892 276.93C386.051 276.885 386.211 276.828 386.383 276.793C386.588 276.748 386.805 276.736 387.022 276.713C387.193 276.691 387.353 276.656 387.536 276.656C387.764 276.645 388.004 276.656 388.233 276.668C388.404 276.668 388.575 276.668 388.758 276.679C388.998 276.702 389.249 276.748 389.489 276.793C389.615 276.816 389.74 276.828 389.877 276.85C391.236 277.125 392.687 277.673 394.194 278.553C398.031 280.769 401.514 284.585 404.027 288.937C406.539 293.301 408.093 298.213 408.081 302.635C408.058 311.465 401.777 315.041 394.103 310.609V310.574ZM440.846 337.569C439.407 336.735 438.014 335.684 436.712 334.462C435.844 333.651 435.01 332.76 434.222 331.8C433.834 331.32 433.446 330.841 433.08 330.338C432.144 329.058 431.299 327.699 430.533 326.294C429.882 325.094 429.311 323.861 428.832 322.604C428.695 322.25 428.558 321.884 428.432 321.519C428.101 320.559 427.804 319.588 427.576 318.617C427.439 318.034 427.324 317.463 427.233 316.88C427.05 315.727 426.959 314.596 426.959 313.499C426.959 312.951 426.982 312.414 427.039 311.911C427.05 311.74 427.085 311.58 427.107 311.408C427.153 311.077 427.187 310.746 427.244 310.449C427.279 310.254 427.347 310.083 427.393 309.889C427.461 309.626 427.519 309.363 427.598 309.112C427.656 308.929 427.735 308.769 427.804 308.587C427.895 308.358 427.975 308.118 428.067 307.913C428.147 307.741 428.249 307.593 428.329 307.433C428.432 307.238 428.535 307.033 428.649 306.85C428.752 306.69 428.866 306.564 428.98 306.416C429.106 306.256 429.22 306.073 429.357 305.925C429.471 305.788 429.608 305.673 429.734 305.559C429.871 305.422 430.008 305.274 430.157 305.159C430.294 305.045 430.442 304.965 430.591 304.862C430.75 304.759 430.899 304.634 431.059 304.542C431.23 304.44 431.413 304.371 431.596 304.28C431.744 304.211 431.892 304.131 432.052 304.063C432.246 303.994 432.452 303.948 432.646 303.891C432.806 303.846 432.966 303.788 433.126 303.754C433.331 303.708 433.56 303.697 433.777 303.674C433.948 303.651 434.108 303.617 434.279 303.617C434.508 303.606 434.748 303.617 434.976 303.628C435.147 303.628 435.319 303.629 435.501 303.64C435.753 303.663 436.015 303.708 436.266 303.754C436.438 303.788 436.609 303.8 436.78 303.834C437.054 303.891 437.34 303.983 437.625 304.074C437.785 304.12 437.945 304.154 438.117 304.211C438.448 304.325 438.79 304.474 439.122 304.611C439.247 304.668 439.373 304.702 439.498 304.759C439.967 304.977 440.446 305.216 440.926 305.502C448.612 309.946 454.836 320.742 454.813 329.584C454.79 338.415 448.52 341.991 440.835 337.558L440.846 337.569Z" fill="url(#paint11_linear_103_5249)"/>
<path opacity="0.53" d="M408.093 302.6C408.104 298.179 406.551 293.267 404.038 288.903C401.526 284.539 398.043 280.735 394.206 278.518C392.698 277.65 391.248 277.102 389.889 276.816C389.752 276.793 389.615 276.77 389.489 276.759C389.489 276.759 389.489 276.759 389.5 276.759C389.249 276.713 389.009 276.668 388.77 276.645C388.575 276.633 388.393 276.645 388.21 276.633C388.21 276.633 388.233 276.633 388.244 276.633C388.016 276.633 387.776 276.61 387.548 276.622C387.365 276.622 387.194 276.668 387.022 276.69C387.022 276.69 387.022 276.69 387.034 276.69C386.817 276.713 386.6 276.725 386.394 276.77C386.223 276.805 386.063 276.862 385.892 276.907C385.697 276.965 385.492 277.01 385.309 277.079C385.149 277.136 384.989 277.227 384.83 277.296C384.83 277.296 384.83 277.296 384.841 277.296C384.658 277.376 384.476 277.456 384.304 277.547C384.133 277.65 383.973 277.776 383.802 277.89C383.665 277.981 383.528 278.061 383.402 278.164C383.242 278.29 383.105 278.45 382.957 278.587C382.842 278.701 382.717 278.804 382.603 278.93C382.466 279.089 382.34 279.272 382.203 279.444C382.1 279.581 381.997 279.706 381.895 279.843C381.769 280.026 381.666 280.243 381.563 280.437C381.483 280.597 381.381 280.735 381.312 280.906C381.209 281.123 381.129 281.351 381.049 281.58C380.981 281.751 380.901 281.923 380.844 282.105C380.764 282.357 380.707 282.631 380.638 282.894C380.593 283.076 380.536 283.248 380.501 283.442C380.433 283.773 380.387 284.139 380.341 284.493C380.319 284.63 380.296 284.767 380.284 284.904C380.239 285.418 380.204 285.944 380.204 286.492C380.204 288.149 380.41 289.874 380.821 291.61C380.958 292.193 381.107 292.775 381.289 293.347C381.643 294.512 382.066 295.666 382.568 296.808C383.071 297.951 383.63 299.07 384.259 300.167C386.143 303.434 388.575 306.393 391.293 308.609C392.196 309.352 393.144 310.003 394.103 310.551C401.777 314.984 408.058 311.408 408.081 302.577L408.093 302.6Z" fill="#DEF0FD"/>
<path d="M407.522 219.411C425.486 229.784 425.577 246.6 407.761 256.962C389.911 267.335 345.475 275.663 327.511 265.29C309.57 254.928 324.907 229.795 342.746 219.422C360.573 209.06 389.58 209.06 407.522 219.422V219.411Z" fill="#DEF0FD"/>
<path d="M396.318 192.884C393.143 171.544 391.396 147.953 402.302 126.35C413.506 104.142 434.096 90.6842 452.757 78.7003C453.351 78.3119 453.854 78.3348 454.23 78.5632C454.653 78.7003 454.984 79.0659 455.087 79.7628C458.159 101.731 461.357 126.122 451.809 149.095C442.525 171.441 423.498 185.481 405.237 196.974L396.318 192.872V192.884Z" fill="url(#paint12_linear_103_5249)"/>
<path d="M419.89 203.714L400.669 194.883C402.359 174.446 406.265 153.083 419.398 136.106C434.428 116.685 456.423 108.666 476.317 101.606C476.957 101.377 477.414 101.526 477.722 101.868C478.087 102.12 478.327 102.577 478.27 103.319C476.626 126.362 474.627 151.872 460.991 172.515C450.496 188.394 435.364 197.362 419.878 203.725L419.89 203.714Z" fill="url(#paint13_linear_103_5249)"/>
<path d="M437.522 166.608C428.158 180.809 420.255 191.616 413.266 200.664L410.913 199.578C420.266 183.653 430.545 166.608 441.554 150.181C454.79 130.44 464.965 117.622 474.067 106.187C474.353 105.821 474.433 105.81 474.364 105.981C474.364 106.072 474.227 106.369 473.873 106.963C462.99 125.608 450.884 146.308 437.511 166.597L437.522 166.608Z" fill="url(#paint14_linear_103_5249)"/>
<path d="M420.952 161.091C420.906 161.571 420.872 162.051 420.792 162.53C420.723 162.919 420.598 163.307 420.495 163.696C420.369 164.153 420.266 164.609 420.107 165.066C419.97 165.443 419.798 165.809 419.638 166.186C419.433 166.666 419.227 167.134 418.976 167.614C418.793 167.957 418.576 168.299 418.359 168.631C418.028 169.168 417.674 169.705 417.286 170.23C417.057 170.539 416.795 170.847 416.543 171.155C415.961 171.864 415.31 172.561 414.602 173.246C414.351 173.497 414.122 173.749 413.848 173.989C413.414 174.388 412.923 174.765 412.444 175.154C412.021 175.497 411.621 175.839 411.165 176.159C410.651 176.536 410.08 176.89 409.52 177.256C408.949 177.633 408.401 178.01 407.784 178.375C406.414 179.175 404.952 179.883 403.456 180.569C403.022 180.763 402.588 180.946 402.154 181.129C400.978 181.62 399.778 182.077 398.557 182.488C398.111 182.637 397.689 182.797 397.232 182.945C396.455 183.185 395.667 183.402 394.879 183.619C394.274 183.779 393.68 183.962 393.075 184.11C392.241 184.316 391.396 184.476 390.539 184.647C389.957 184.762 389.386 184.899 388.804 185.001C387.091 185.31 385.343 185.538 383.596 185.733C383.059 185.79 382.511 185.824 381.963 185.87C380.935 185.95 379.907 186.03 378.868 186.075C378.206 186.11 377.543 186.121 376.881 186.132C376.047 186.144 375.213 186.155 374.368 186.144C373.672 186.144 372.975 186.11 372.267 186.087C371.49 186.052 370.714 186.018 369.937 185.961C369.229 185.915 368.521 185.847 367.825 185.79C367.059 185.721 366.294 185.63 365.54 185.538C364.855 185.447 364.17 185.356 363.485 185.253C362.674 185.127 361.863 184.979 361.052 184.83C360.413 184.704 359.785 184.579 359.145 184.442C358.186 184.236 357.238 183.996 356.301 183.745C355.776 183.608 355.251 183.471 354.737 183.322C353.058 182.831 351.402 182.283 349.815 181.654C349.027 181.346 348.262 181.003 347.496 180.672C347.108 180.5 346.697 180.34 346.309 180.158C345.155 179.609 344.025 179.027 342.94 178.398C333.918 173.189 329.407 166.346 329.43 159.503L329.224 233.508C329.201 240.34 333.712 247.194 342.734 252.403C343.819 253.032 344.938 253.614 346.103 254.163C346.48 254.346 346.88 254.494 347.268 254.665C347.953 254.974 348.638 255.294 349.358 255.568C349.438 255.602 349.529 255.625 349.609 255.648C351.197 256.265 352.841 256.813 354.531 257.304C354.668 257.339 354.794 257.396 354.931 257.441C355.319 257.556 355.719 257.624 356.107 257.727C357.044 257.978 357.992 258.218 358.951 258.424C359.202 258.481 359.453 258.561 359.705 258.607C360.082 258.687 360.47 258.732 360.847 258.801C361.658 258.949 362.457 259.098 363.279 259.224C363.61 259.269 363.919 259.349 364.25 259.395C364.604 259.441 364.969 259.475 365.324 259.509C366.089 259.601 366.842 259.692 367.619 259.761C367.984 259.795 368.35 259.852 368.715 259.886C369.058 259.909 369.401 259.92 369.743 259.943C370.508 260 371.285 260.035 372.061 260.069C372.45 260.08 372.838 260.126 373.238 260.126C373.546 260.126 373.866 260.126 374.174 260.126C375.008 260.126 375.842 260.126 376.675 260.115C377.086 260.115 377.509 260.115 377.92 260.115C378.171 260.115 378.411 260.08 378.662 260.069C379.702 260.023 380.729 259.943 381.757 259.863C382.168 259.829 382.591 259.818 383.014 259.783C383.139 259.772 383.265 259.738 383.402 259.726C385.161 259.543 386.896 259.304 388.609 258.995C388.689 258.984 388.781 258.972 388.861 258.961C389.363 258.869 389.843 258.744 390.334 258.641C391.19 258.47 392.036 258.298 392.869 258.093C393.475 257.944 394.068 257.773 394.674 257.601C395.462 257.384 396.261 257.167 397.026 256.927C397.198 256.87 397.369 256.836 397.529 256.779C397.803 256.687 398.065 256.562 398.34 256.47C399.573 256.048 400.772 255.602 401.937 255.1C402.382 254.917 402.816 254.734 403.25 254.54C404.746 253.866 406.197 253.146 407.579 252.358C407.761 252.243 407.955 252.141 408.138 252.026C408.561 251.775 408.926 251.501 409.326 251.238C409.885 250.873 410.456 250.518 410.97 250.141C411.427 249.81 411.827 249.467 412.249 249.125C412.729 248.736 413.22 248.359 413.654 247.959C413.746 247.88 413.848 247.811 413.94 247.731C414.122 247.571 414.237 247.388 414.408 247.217C415.116 246.531 415.767 245.835 416.349 245.126C416.475 244.966 416.646 244.829 416.772 244.669C416.898 244.521 416.977 244.349 417.092 244.201C417.48 243.675 417.834 243.139 418.165 242.602C418.302 242.373 418.485 242.156 418.622 241.928C418.69 241.813 418.725 241.699 418.782 241.585C419.033 241.116 419.239 240.637 419.456 240.157C419.581 239.883 419.741 239.608 419.844 239.323C419.878 239.231 419.89 239.129 419.924 239.037C420.084 238.58 420.198 238.123 420.312 237.666C420.392 237.358 420.518 237.049 420.575 236.741C420.586 236.661 420.586 236.581 420.598 236.49C420.689 236.01 420.723 235.53 420.758 235.039C420.78 234.73 420.86 234.411 420.86 234.102C420.86 233.965 420.86 233.828 420.86 233.702L421.066 159.697C421.066 160.143 420.997 160.588 420.952 161.045V161.091Z" fill="url(#paint15_linear_103_5249)"/>
<path d="M407.521 140.824C425.486 151.197 425.577 168.014 407.761 178.375C389.911 188.748 360.904 188.748 342.94 178.375C324.998 168.014 324.907 151.197 342.757 140.824C360.584 130.463 389.592 130.463 407.533 140.824H407.521Z" fill="url(#paint16_linear_103_5249)"/>
<path d="M375.396 182.408C363.805 182.408 352.944 179.826 344.813 175.131C337.309 170.801 333.175 165.26 333.175 159.537C333.175 153.859 337.241 148.364 344.641 144.057C352.693 139.373 363.519 136.792 375.111 136.792C386.702 136.792 397.551 139.373 405.671 144.057C413.186 148.398 417.331 153.939 417.343 159.674C417.343 165.352 413.289 170.835 405.9 175.131C397.837 179.826 386.999 182.408 375.408 182.408H375.396Z" fill="url(#paint17_linear_103_5249)"/>
<path d="M344.801 175.131C352.932 179.826 363.793 182.408 375.385 182.408C386.976 182.408 397.803 179.826 405.877 175.131C410.205 172.618 413.392 169.682 415.287 166.54C413.357 163.341 410.102 160.348 405.66 157.778C397.54 153.094 386.691 150.512 375.099 150.512C363.508 150.512 352.693 153.094 344.63 157.778C340.29 160.303 337.104 163.239 335.197 166.38C337.115 169.579 340.37 172.561 344.801 175.12V175.131Z" fill="url(#paint18_linear_103_5249)"/>
<path d="M344.801 175.131C352.933 179.826 363.793 182.408 375.385 182.408C386.976 182.408 397.803 179.826 405.877 175.131C409.634 172.949 412.512 170.458 414.454 167.785C412.478 165.055 409.52 162.507 405.66 160.268C397.54 155.584 386.691 153.002 375.099 153.002C363.508 153.002 352.693 155.584 344.63 160.268C340.861 162.462 337.972 164.952 336.031 167.625C338.006 170.344 340.953 172.892 344.801 175.119V175.131Z" fill="url(#paint19_linear_103_5249)"/>
<path d="M418.999 236.09H416.726C412.718 236.09 413.095 232.834 413.095 228.824C413.095 224.814 412.718 221.558 416.726 221.558H418.999C427.427 221.558 434.279 214.704 434.279 206.273C434.279 197.842 427.427 190.987 418.999 190.987H418.542C414.534 190.987 414.385 187.732 414.385 183.722C414.385 179.712 414.534 176.456 418.542 176.456H418.999C435.433 176.456 448.794 189.834 448.794 206.261C448.794 222.689 435.421 236.067 418.999 236.067V236.09Z" fill="url(#paint20_linear_103_5249)"/>
<path d="M415.287 166.551C413.357 163.353 410.102 160.36 405.66 157.789C397.54 153.105 386.691 150.523 375.099 150.523C363.508 150.523 352.693 153.105 344.63 157.789C340.29 160.314 337.104 163.25 335.197 166.391C335.448 166.814 335.734 167.225 336.03 167.637C337.972 164.963 340.861 162.462 344.63 160.28C352.681 155.596 363.725 151.769 375.316 151.769C384.03 151.769 392.104 154.476 399.139 157.195C399.139 158.212 396.661 162.199 396.592 163.158C396.455 164.872 397.186 166.334 398.876 166.837C401.069 167.488 403.479 166.163 405.534 165.569C405.808 165.489 406.071 165.432 406.334 165.398C406.391 165.455 406.448 165.512 406.528 165.546C406.619 165.957 406.505 166.517 406.791 166.94C407.282 167.637 408.15 167.991 408.938 168.242C409.828 168.528 410.525 168.436 411.404 168.196C412.352 167.934 413.3 168.082 414.202 167.671C414.237 167.648 414.259 167.625 414.294 167.602C414.339 167.671 414.396 167.74 414.454 167.808C414.751 167.397 415.036 166.986 415.287 166.563V166.551ZM406.562 164.004C405.466 164.198 404.415 164.609 403.364 164.952C401.834 165.455 397.255 167.237 397.963 162.519C398.134 161.422 399.596 160.188 400.361 158.943C400.704 158.383 401.4 158.155 401.994 158.417C403.262 158.989 404.495 159.606 405.649 160.268C406.379 160.691 407.065 161.125 407.727 161.559C408.801 162.279 408.298 163.89 407.008 163.947C406.848 163.947 406.688 163.97 406.551 163.992L406.562 164.004ZM411.073 166.974C410.182 167.214 408.595 167.214 407.921 166.346C407.67 166.026 407.67 165.637 407.647 165.283C408.675 165.283 409.668 165.455 410.765 165.489C410.879 165.489 410.993 165.489 411.085 165.489C411.998 165.455 412.889 165.866 413.483 166.563C413.483 166.563 413.483 166.563 413.494 166.574C412.809 166.848 411.781 166.757 411.062 166.963L411.073 166.974Z" fill="white"/>
<path d="M47.7366 258.503C47.7366 258.503 47.7708 258.606 47.7937 258.652C47.7937 258.652 47.7594 258.549 47.7366 258.503Z" fill="#453A3C"/>
<path d="M44.4363 158.269C47.5883 153.368 51.6653 149.153 56.1307 146.571L234.687 43.4229L56.1421 146.571C51.6767 149.153 47.5997 153.368 44.4477 158.269H44.4363Z" fill="#F9FAFB"/>
<path d="M38.8175 346.16C38.7947 346.012 38.7719 345.863 38.749 345.715C38.7719 345.863 38.7833 346.012 38.8175 346.16Z" fill="#F9FAFB"/>
<path d="M38.5662 343.772C38.5776 344.104 38.589 344.446 38.6118 344.766C38.5776 344.446 38.5776 344.104 38.5662 343.772Z" fill="#F9FAFB"/>
<path d="M302.763 25.0072C302.752 19.2609 300.708 15.2282 297.43 13.3432C297.224 13.229 296.996 13.1376 296.779 13.0348C296.562 12.932 296.356 12.8177 296.128 12.7377C295.9 12.6578 295.66 12.6007 295.431 12.5321C295.203 12.4636 294.975 12.3836 294.735 12.3379C294.495 12.2922 294.232 12.2694 293.981 12.2465C293.73 12.2122 293.49 12.1665 293.239 12.1551C292.976 12.1437 292.691 12.1551 292.416 12.1665C292.154 12.1665 291.903 12.1665 291.64 12.1894C291.354 12.2122 291.046 12.2808 290.761 12.3265C290.498 12.3722 290.235 12.395 289.973 12.4521C289.653 12.5207 289.333 12.6349 289.002 12.7263C288.739 12.8063 288.488 12.852 288.225 12.9434C287.848 13.069 287.46 13.2404 287.083 13.4003C286.866 13.4917 286.649 13.5603 286.421 13.6631C285.804 13.9487 285.187 14.2686 284.559 14.6341L234.721 43.4228L56.1421 146.571C51.6767 149.152 47.5997 153.368 44.4477 158.269C40.5191 164.381 38.0181 171.544 38.0409 177.941L38.532 342.688C38.532 343.065 38.5663 343.407 38.5777 343.761C38.5891 344.093 38.6005 344.435 38.6234 344.755C38.6576 345.087 38.7147 345.395 38.7604 345.703C38.7832 345.852 38.8061 346.001 38.8289 346.149C38.8632 346.32 38.8746 346.503 38.9089 346.663C38.966 346.972 39.0573 347.257 39.1373 347.554C39.2058 347.84 39.2743 348.137 39.3543 348.411C39.4456 348.697 39.5598 348.948 39.6626 349.211C39.7654 349.462 39.8453 349.725 39.9595 349.965C40.0737 350.216 40.2222 350.433 40.3478 350.673C40.4734 350.901 40.5876 351.141 40.7247 351.347C40.8617 351.564 41.033 351.747 41.1815 351.952C41.33 352.147 41.467 352.364 41.6383 352.547C41.7982 352.729 41.9809 352.889 42.1636 353.049C42.335 353.221 42.5063 353.392 42.689 353.552C42.8717 353.712 43.0773 353.826 43.2714 353.952C46.6061 356.259 51.4141 356.157 56.7588 353.072L285.153 221.136C295.18 215.344 303.289 201.292 303.254 189.754L302.775 25.0072H302.763Z" fill="url(#paint21_linear_103_5249)"/>
<path d="M285.244 6.43151C281.944 4.51227 277.364 4.78645 272.317 7.69958L43.9223 139.648C33.8953 145.44 25.7869 159.491 25.8212 171.018L26.3008 335.764C26.3122 341.499 28.345 345.532 31.5998 347.417L43.8081 354.34C43.614 354.226 43.4427 354.077 43.2485 353.952C43.0544 353.814 42.8488 353.7 42.6661 353.552C42.4834 353.403 42.312 353.22 42.1407 353.049C41.9694 352.878 41.7867 352.729 41.6154 352.546C41.4555 352.364 41.3185 352.158 41.1586 351.952C41.0101 351.747 40.8388 351.564 40.7018 351.347C40.5647 351.141 40.4505 350.901 40.3249 350.673C40.1993 350.433 40.0508 350.216 39.9366 349.965C39.8224 349.725 39.7425 349.462 39.6397 349.211C39.5369 348.948 39.4113 348.685 39.3314 348.411C39.24 348.137 39.1829 347.84 39.1144 347.554C39.0344 347.257 38.9431 346.983 38.886 346.663C38.8517 346.503 38.8403 346.32 38.806 346.149C38.7832 346 38.7603 345.852 38.7375 345.703C38.6918 345.383 38.6347 345.086 38.6005 344.755C38.5662 344.435 38.5662 344.093 38.5548 343.761C38.5319 343.407 38.5091 343.053 38.5091 342.687L38.018 177.941C37.9952 171.544 40.4962 164.369 44.4248 158.269C47.5768 153.368 51.6538 149.152 56.1192 146.571L234.687 43.4226L284.525 14.634C285.153 14.2684 285.77 13.9485 286.386 13.6629C286.615 13.5601 286.832 13.4916 287.049 13.4002C287.437 13.2403 287.814 13.0689 288.191 12.9432C288.454 12.8518 288.705 12.7947 288.967 12.7262C289.287 12.6348 289.618 12.5205 289.938 12.452C290.212 12.3949 290.464 12.372 290.726 12.3263C291.023 12.2806 291.32 12.2121 291.605 12.1892C291.868 12.1664 292.119 12.1778 292.382 12.1664C292.656 12.1664 292.942 12.1321 293.204 12.155C293.456 12.1664 293.695 12.2121 293.947 12.2464C294.198 12.2806 294.461 12.2921 294.7 12.3378C294.94 12.3834 295.169 12.4634 295.397 12.532C295.637 12.6005 295.877 12.6462 296.094 12.7376C296.322 12.8176 296.528 12.9318 296.745 13.0346C296.962 13.1374 297.19 13.2288 297.396 13.3431C297.407 13.3431 297.418 13.3431 297.43 13.3659L285.222 6.44293L285.244 6.43151Z" fill="#1473BF"/>
<path d="M49.5867 345.201L49.3697 345.144C49.3469 345.132 49.2098 345.075 49.2098 345.075L49.0728 344.984L48.9243 344.835L48.7188 344.561L48.5132 344.184L48.4104 343.91L48.2848 343.601L48.1934 343.224C48.1592 343.087 48.1249 342.962 48.0906 342.836C48.0678 342.722 48.0221 342.299 48.0221 342.299C47.9993 342.162 47.9879 342.025 47.965 341.888C47.9422 341.568 47.9193 341.214 47.9193 340.86L47.4283 176.113C47.4168 171.452 49.6895 165.66 53.3554 160.988C53.7208 160.531 54.0977 160.074 54.486 159.64L54.8629 159.206C56.279 157.698 57.7636 156.487 59.2483 155.618L287.654 23.6705C287.974 23.4877 288.282 23.3278 288.59 23.1793C288.762 23.1107 289.401 22.848 289.504 22.8023C289.664 22.7566 289.778 22.7338 289.892 22.6995L290.304 22.5738L290.92 22.4824H291.377L291.697 22.5167L291.914 22.5738L292.165 22.6881C292.77 23.1336 293.353 24.5616 293.353 26.8693L293.832 191.616C293.844 196.654 291.194 202.983 287.083 207.735L286.969 207.861C286.798 208.055 286.626 208.249 286.455 208.443L286.169 208.74C285.93 208.992 285.69 209.232 285.45 209.46L285.084 209.791C284.856 209.997 284.628 210.203 284.411 210.385L284.034 210.694C283.805 210.877 283.566 211.048 283.337 211.219L282.983 211.471C282.675 211.676 282.344 211.893 282.001 212.088L53.5952 344.036C53.2869 344.207 52.9899 344.367 52.693 344.515C52.556 344.561 52.4304 344.618 52.3162 344.675C52.1563 344.744 51.9621 344.835 51.7794 344.904C51.6424 344.938 51.197 345.075 51.0942 345.098C51.0142 345.121 50.9457 345.132 50.8772 345.144L50.3633 345.224C50.2719 345.224 49.8836 345.235 49.8836 345.235L49.5753 345.201H49.5867Z" fill="white"/>
<path d="M293.524 50.8367L293.353 26.8575C293.353 24.5499 292.759 23.1219 292.165 22.6763L291.914 22.5621L291.697 22.505L291.377 22.4707H290.92L290.304 22.5735L289.892 22.6992C289.778 22.7335 289.664 22.7677 289.504 22.802C289.401 22.8477 288.75 23.1105 288.591 23.179C288.282 23.3275 287.962 23.4874 287.654 23.6702L59.2597 155.607C57.7637 156.464 56.2905 157.675 54.8743 159.194L54.4975 159.628C54.1092 160.062 53.7323 160.519 53.3669 160.976C49.701 165.637 47.4283 171.441 47.4397 176.102L47.4968 192.952L293.524 50.8481V50.8367Z" fill="#2196F3"/>
<path d="M266.332 102.222L157.703 166.094L157.714 170.252V175.553L266.344 111.681L266.332 102.222Z" fill="url(#paint22_linear_103_5249)"/>
<path d="M259.948 125.744L259.96 131.033L157.725 191.056L157.703 185.755L259.948 125.744Z" fill="url(#paint23_linear_103_5249)"/>
<path d="M264.551 123.082C265.807 122.351 266.858 122.923 266.858 124.396C266.858 125.836 265.819 127.652 264.562 128.372C263.283 129.114 262.255 128.497 262.255 127.058C262.255 125.584 263.272 123.825 264.551 123.082Z" fill="url(#paint24_linear_103_5249)"/>
<path d="M259.948 141.247L259.971 146.536L157.725 206.558L157.703 201.257L259.948 141.247Z" fill="url(#paint25_linear_103_5249)"/>
<path d="M264.562 138.585C265.819 137.854 266.869 138.425 266.869 139.899C266.869 141.338 265.83 143.155 264.574 143.874C263.295 144.617 262.267 144 262.267 142.56C262.267 141.087 263.283 139.327 264.562 138.585Z" fill="url(#paint26_linear_103_5249)"/>
<path d="M259.948 156.749L259.971 162.038L157.725 222.06L157.703 216.76L259.948 156.749Z" fill="url(#paint27_linear_103_5249)"/>
<path d="M264.562 154.087C265.819 153.356 266.869 153.927 266.869 155.401C266.869 156.841 265.83 158.657 264.574 159.377C263.295 160.119 262.267 159.502 262.267 158.063C262.267 156.589 263.283 154.83 264.562 154.087Z" fill="url(#paint28_linear_103_5249)"/>
<path d="M259.96 172.251L259.971 177.541L157.726 237.563L157.714 232.262L259.96 172.251Z" fill="url(#paint29_linear_103_5249)"/>
<path d="M264.562 169.59C265.819 168.859 266.869 169.43 266.869 170.904C266.869 172.343 265.83 174.159 264.574 174.879C263.295 175.622 262.267 175.005 262.267 173.565C262.267 172.092 263.283 170.332 264.562 169.59Z" fill="url(#paint30_linear_103_5249)"/>
<path d="M89.1011 267.026C100.864 272.521 125.931 250.758 133.663 240.317C141.269 230.023 144.775 195.466 133.663 189.114C122.425 182.694 95.5193 204.182 89.1011 215.424C82.7057 226.631 77.4181 261.565 89.1011 267.026Z" fill="url(#paint31_linear_103_5249)"/>
<path d="M107.202 221.124L107.259 240.511L123.944 225.145L107.202 221.124Z" fill="white"/>
<path d="M78.3316 329.824C81.2666 311.386 82.8312 291.291 72.3817 274.897C61.6352 258.035 41.9923 250.05 24.1995 242.978C23.6284 242.75 23.1602 242.841 22.7948 243.104C22.395 243.287 22.0753 243.652 21.9839 244.258C19.1517 263.21 16.2052 284.208 25.3757 301.972C34.295 319.245 52.4532 327.985 69.8578 334.702L78.3316 329.824Z" fill="url(#paint32_linear_103_5249)"/>
<path d="M55.9479 342.71L74.1976 332.2C72.5074 315.304 68.7044 297.985 56.1421 285.841C41.7639 271.95 20.8191 268.739 1.86145 266.009C1.25618 265.918 0.822208 266.123 0.52528 266.455C0.182671 266.729 -0.0457343 267.151 -5.3158e-05 267.757C1.65589 286.847 3.66586 307.958 16.7192 323.095C26.7691 334.748 41.1929 339.843 55.9479 342.71Z" fill="url(#paint33_linear_103_5249)"/>
<path d="M39.0346 314.379C47.9995 324.809 55.5597 332.611 62.2406 339.089L64.479 337.798C55.5255 325.928 45.6697 313.259 35.1288 301.241C22.4637 286.79 12.7336 277.662 4.01994 269.516C3.74586 269.254 3.67734 269.254 3.73444 269.391C3.73444 269.471 3.87148 269.688 4.20267 270.133C14.6294 284.048 26.2324 299.482 39.0346 314.379Z" fill="url(#paint34_linear_103_5249)"/>
<path d="M106.871 45.7075C106.917 43.3427 103.022 40.6694 101.526 41.5377L69.5153 60.0218C69.3554 58.4453 65.324 54.6525 63.3712 55.7835L53.4583 61.5069L43.5798 67.2075C41.6041 68.35 40.0052 71.1146 40.0167 73.3651L40.0509 84.435L40.1537 120.741C40.1194 123.745 42.1066 126.464 45.4984 124.888L64.1706 114.103L104.29 90.9353C105.786 90.0671 107.008 87.9651 106.997 86.2629L106.882 45.6846L106.871 45.7075Z" fill="#222447"/>
<path d="M106.985 86.2741L106.871 45.6958C106.871 43.9708 105.638 43.2739 104.142 44.1422L69.5724 64.1114V60.4329C69.5609 58.1823 67.9507 57.257 65.9864 58.3994L56.0736 64.1228L46.195 69.8234C44.2193 70.9659 42.6205 73.7305 42.6319 75.981V79.0541V79.6596L42.6547 87.0509L42.7575 123.357C42.7575 125.059 43.9909 125.756 45.487 124.887L64.1591 114.103L104.279 90.9351C105.775 90.0669 106.997 87.9649 106.985 86.2627V86.2741Z" fill="url(#paint35_linear_103_5249)"/>
<path d="M85.7206 76.8493L88.4272 75.2842C88.4958 75.2499 88.53 75.1814 88.5643 75.1243V74.8387L82.5915 71.103L76.4702 67.2645C76.4702 67.2645 76.3674 67.2531 76.3103 67.2874C76.2532 67.3216 76.1961 67.3788 76.1504 67.4587L70.0634 78.3459L64.0449 89.1073V89.3244C64.0449 89.3244 64.102 89.3472 64.1477 89.3244L66.9685 87.6908L67.0142 104.93L72.6216 101.697L72.9071 101.525L72.8728 90.741L79.8506 86.7083L79.8849 97.4926L85.7663 94.0882L85.7206 76.8493Z" fill="white"/>
</g>
<defs>
<linearGradient id="paint0_linear_103_5249" x1="203.076" y1="400.961" x2="400.247" y2="400.961" gradientUnits="userSpaceOnUse">
<stop stop-color="#2196F3"/>
<stop offset="1" stop-color="#1473BF"/>
</linearGradient>
<linearGradient id="paint1_linear_103_5249" x1="5.85381e-05" y1="396.917" x2="1.14209" y2="396.917" gradientUnits="userSpaceOnUse">
<stop stop-color="#1473BF"/>
<stop offset="1" stop-color="#0C5188"/>
</linearGradient>
<linearGradient id="paint2_linear_103_5249" x1="210.739" y1="389.903" x2="394.617" y2="389.903" gradientUnits="userSpaceOnUse">
<stop stop-color="#E6EBF0"/>
<stop offset="1" stop-color="#EDF7FF"/>
</linearGradient>
<linearGradient id="paint3_linear_103_5249" x1="66.249" y1="345.452" x2="171.144" y2="345.452" gradientUnits="userSpaceOnUse">
<stop stop-color="#95BEE8"/>
<stop offset="1" stop-color="#C7E7FF"/>
</linearGradient>
<linearGradient id="paint4_linear_103_5249" x1="62.7773" y1="378.33" x2="74.9399" y2="378.33" gradientUnits="userSpaceOnUse">
<stop stop-color="#95BEE8"/>
<stop offset="1" stop-color="#C7E7FF"/>
</linearGradient>
<linearGradient id="paint5_linear_103_5249" x1="113.757" y1="355.746" x2="208.42" y2="355.746" gradientUnits="userSpaceOnUse">
<stop stop-color="#2196F3"/>
<stop offset="1" stop-color="#1473BF"/>
</linearGradient>
<linearGradient id="paint6_linear_103_5249" x1="111.302" y1="396.746" x2="124.584" y2="396.746" gradientUnits="userSpaceOnUse">
<stop stop-color="#1473BF"/>
<stop offset="0.0001" stop-color="#2196F3"/>
<stop offset="1" stop-color="#1473BF"/>
</linearGradient>
<linearGradient id="paint7_linear_103_5249" x1="507.186" y1="312.985" x2="515.5" y2="312.985" gradientUnits="userSpaceOnUse">
<stop stop-color="#FFB3D6"/>
<stop offset="0.0001" stop-color="#2196F3"/>
<stop offset="1" stop-color="#1473BF"/>
</linearGradient>
<linearGradient id="paint8_linear_103_5249" x1="457.074" y1="314.116" x2="514.53" y2="314.116" gradientUnits="userSpaceOnUse">
<stop stop-color="#2196F3"/>
<stop offset="1" stop-color="#1473BF"/>
</linearGradient>
<linearGradient id="paint9_linear_103_5249" x1="441.109" y1="264.913" x2="449.423" y2="264.913" gradientUnits="userSpaceOnUse">
<stop stop-color="#2196F3"/>
<stop offset="1" stop-color="#1473BF"/>
</linearGradient>
<linearGradient id="paint10_linear_103_5249" x1="390.996" y1="266.043" x2="448.452" y2="266.043" gradientUnits="userSpaceOnUse">
<stop stop-color="#2196F3"/>
<stop offset="1" stop-color="#1473BF"/>
</linearGradient>
<linearGradient id="paint11_linear_103_5249" x1="419.25" y1="291.393" x2="415.09" y2="331.514" gradientUnits="userSpaceOnUse">
<stop stop-color="#2196F3"/>
<stop offset="1" stop-color="#1473BF"/>
</linearGradient>
<linearGradient id="paint12_linear_103_5249" x1="456.026" y1="48.5981" x2="419.734" y2="158.901" gradientUnits="userSpaceOnUse">
<stop stop-color="#4FCAFF"/>
<stop offset="1" stop-color="#3D43BC"/>
</linearGradient>
<linearGradient id="paint13_linear_103_5249" x1="489.929" y1="85.9583" x2="417.301" y2="185.72" gradientUnits="userSpaceOnUse">
<stop stop-color="#4FCAFF"/>
<stop offset="1" stop-color="#3D43BC"/>
</linearGradient>
<linearGradient id="paint14_linear_103_5249" x1="478.697" y1="106.606" x2="403.024" y2="207.029" gradientUnits="userSpaceOnUse">
<stop stop-color="#1FBBFF"/>
<stop offset="1" stop-color="#3D43BC"/>
</linearGradient>
<linearGradient id="paint15_linear_103_5249" x1="326.015" y1="132.805" x2="410.458" y2="247.156" gradientUnits="userSpaceOnUse">
<stop stop-color="#FFB3D6"/>
<stop offset="1" stop-color="#B163D6"/>
</linearGradient>
<linearGradient id="paint16_linear_103_5249" x1="322.292" y1="156.795" x2="416.235" y2="161.784" gradientUnits="userSpaceOnUse">
<stop stop-color="#FFC2DE"/>
<stop offset="1" stop-color="#EBC2FF"/>
</linearGradient>
<linearGradient id="paint17_linear_103_5249" x1="333.164" y1="159.605" x2="417.32" y2="159.605" gradientUnits="userSpaceOnUse">
<stop stop-color="#FFB3D6"/>
<stop offset="1" stop-color="#B163D6"/>
</linearGradient>
<linearGradient id="paint18_linear_103_5249" x1="335.197" y1="166.472" x2="415.287" y2="166.472" gradientUnits="userSpaceOnUse">
<stop stop-color="#95BEE8"/>
<stop offset="1" stop-color="#C7E7FF"/>
</linearGradient>
<linearGradient id="paint19_linear_103_5249" x1="335.197" y1="167.717" x2="415.287" y2="167.717" gradientUnits="userSpaceOnUse">
<stop stop-color="#95BEE8"/>
<stop offset="1" stop-color="#C7E7FF"/>
</linearGradient>
<linearGradient id="paint20_linear_103_5249" x1="354.588" y1="111.704" x2="439.032" y2="226.067" gradientUnits="userSpaceOnUse">
<stop stop-color="#FFB3D6"/>
<stop offset="1" stop-color="#B163D6"/>
</linearGradient>
<linearGradient id="paint21_linear_103_5249" x1="38.0181" y1="183.87" x2="303.231" y2="183.87" gradientUnits="userSpaceOnUse">
<stop stop-color="#95BEE8"/>
<stop offset="1" stop-color="#C7E7FF"/>
</linearGradient>
<linearGradient id="paint22_linear_103_5249" x1="298.629" y1="118.501" x2="118.125" y2="161.007" gradientUnits="userSpaceOnUse">
<stop stop-color="#95BEE8"/>
<stop offset="0.18" stop-color="#C7E7FF"/>
<stop offset="1" stop-color="#C7E7FF"/>
</linearGradient>
<linearGradient id="paint23_linear_103_5249" x1="295.671" y1="137.956" x2="127.022" y2="177.664" gradientUnits="userSpaceOnUse">
<stop stop-color="#95BEE8"/>
<stop offset="0.18" stop-color="#C7E7FF"/>
<stop offset="1" stop-color="#C7E7FF"/>
</linearGradient>
<linearGradient id="paint24_linear_103_5249" x1="262.255" y1="125.756" x2="266.858" y2="125.756" gradientUnits="userSpaceOnUse">
<stop stop-color="#FFB3D6"/>
<stop offset="1" stop-color="#B163D6"/>
</linearGradient>
<linearGradient id="paint25_linear_103_5249" x1="301.587" y1="152.065" x2="132.938" y2="191.773" gradientUnits="userSpaceOnUse">
<stop stop-color="#95BEE8"/>
<stop offset="0.18" stop-color="#C7E7FF"/>
<stop offset="1" stop-color="#C7E7FF"/>
</linearGradient>
<linearGradient id="paint26_linear_103_5249" x1="262.255" y1="141.258" x2="266.858" y2="141.258" gradientUnits="userSpaceOnUse">
<stop stop-color="#FFB3D6"/>
<stop offset="1" stop-color="#B163D6"/>
</linearGradient>
<linearGradient id="paint27_linear_103_5249" x1="307.514" y1="166.162" x2="138.865" y2="205.882" gradientUnits="userSpaceOnUse">
<stop stop-color="#95BEE8"/>
<stop offset="0.18" stop-color="#C7E7FF"/>
<stop offset="1" stop-color="#C7E7FF"/>
</linearGradient>
<linearGradient id="paint28_linear_103_5249" x1="262.255" y1="156.761" x2="266.858" y2="156.761" gradientUnits="userSpaceOnUse">
<stop stop-color="#FFB3D6"/>
<stop offset="1" stop-color="#B163D6"/>
</linearGradient>
<linearGradient id="paint29_linear_103_5249" x1="313.43" y1="180.271" x2="144.78" y2="219.991" gradientUnits="userSpaceOnUse">
<stop stop-color="#95BEE8"/>
<stop offset="0.18" stop-color="#C7E7FF"/>
<stop offset="1" stop-color="#C7E7FF"/>
</linearGradient>
<linearGradient id="paint30_linear_103_5249" x1="262.255" y1="172.263" x2="266.858" y2="172.263" gradientUnits="userSpaceOnUse">
<stop stop-color="#FFB3D6"/>
<stop offset="1" stop-color="#B163D6"/>
</linearGradient>
<linearGradient id="paint31_linear_103_5249" x1="140.749" y1="228.154" x2="82.1974" y2="228.164" gradientUnits="userSpaceOnUse">
<stop offset="0.18" stop-color="#C7E7FF"/>
<stop offset="1" stop-color="#95BEE8"/>
</linearGradient>
<linearGradient id="paint32_linear_103_5249" x1="13.8074" y1="226.482" x2="59.4329" y2="306.941" gradientUnits="userSpaceOnUse">
<stop stop-color="#FFB3D6"/>
<stop offset="1" stop-color="#B163D6"/>
</linearGradient>
<linearGradient id="paint33_linear_103_5249" x1="-15.3588" y1="265.926" x2="140.027" y2="382.735" gradientUnits="userSpaceOnUse">
<stop stop-color="#4FCAFF"/>
<stop offset="1" stop-color="#3D43BC"/>
</linearGradient>
<linearGradient id="paint34_linear_103_5249" x1="-12.9357" y1="253.444" x2="102.065" y2="378.485" gradientUnits="userSpaceOnUse">
<stop stop-color="#1FBBFF"/>
<stop offset="1" stop-color="#3D43BC"/>
</linearGradient>
<linearGradient id="paint35_linear_103_5249" x1="42.6205" y1="84.5262" x2="106.985" y2="84.5262" gradientUnits="userSpaceOnUse">
<stop stop-color="#95BEE8"/>
<stop offset="1" stop-color="#C7E7FF"/>
</linearGradient>
<clipPath id="clip0_103_5249">
<rect width="520" height="449" fill="white"/>
</clipPath>
</defs>
</svg>
