<svg width="20" height="20" viewBox="0 0 20 20" fill="none" xmlns="http://www.w3.org/2000/svg">
<path d="M17.5 4.98356C14.725 4.70856 11.9333 4.56689 9.15 4.56689C7.5 4.56689 5.85 4.65023 4.2 4.81689L2.5 4.98356" stroke="white" stroke-width="1.5" stroke-linecap="round" stroke-linejoin="round"/>
<path d="M7.08325 4.1415L7.26659 3.04984C7.39992 2.25817 7.49992 1.6665 8.90825 1.6665H11.0916C12.4999 1.6665 12.6083 2.2915 12.7333 3.05817L12.9166 4.1415" stroke="white" stroke-width="1.5" stroke-linecap="round" stroke-linejoin="round"/>
<path d="M15.7084 7.6167L15.1667 16.0084C15.0751 17.3167 15.0001 18.3334 12.6751 18.3334H7.32508C5.00008 18.3334 4.92508 17.3167 4.83341 16.0084L4.29175 7.6167" stroke="white" stroke-width="1.5" stroke-linecap="round" stroke-linejoin="round"/>
<path d="M8.6084 13.75H11.3834" stroke="white" stroke-width="1.5" stroke-linecap="round" stroke-linejoin="round"/>
<path d="M7.91675 10.4165H12.0834" stroke="white" stroke-width="1.5" stroke-linecap="round" stroke-linejoin="round"/>
</svg>
