<svg width="16" height="16" viewBox="0 0 16 16" fill="none" xmlns="http://www.w3.org/2000/svg">
<path d="M2.83997 7.34663V10.66C2.83997 11.8733 2.83997 11.8733 3.98663 12.6466L7.13997 14.4666C7.6133 14.74 8.38663 14.74 8.85997 14.4666L12.0133 12.6466C13.16 11.8733 13.16 11.8733 13.16 10.66V7.34663C13.16 6.13329 13.16 6.13329 12.0133 5.35996L8.85997 3.53996C8.38663 3.26663 7.6133 3.26663 7.13997 3.53996L3.98663 5.35996C2.83997 6.13329 2.83997 6.13329 2.83997 7.34663Z" stroke="#2196F3" stroke-width="1.5" stroke-linecap="round" stroke-linejoin="round"/>
<path d="M11.6667 5.08634V3.33301C11.6667 1.99967 11 1.33301 9.66671 1.33301H6.33337C5.00004 1.33301 4.33337 1.99967 4.33337 3.33301V5.03967" stroke="#2196F3" stroke-width="1.5" stroke-linecap="round" stroke-linejoin="round"/>
<path d="M8.42006 7.32664L8.80006 7.91997C8.86006 8.01331 8.99339 8.10664 9.09339 8.13331L9.77339 8.30664C10.1934 8.41331 10.3067 8.77331 10.0334 9.10664L9.58672 9.64664C9.52006 9.73331 9.46672 9.88664 9.47339 9.99331L9.51339 10.6933C9.54006 11.1266 9.23339 11.3466 8.83339 11.1866L8.18006 10.9266C8.08006 10.8866 7.91339 10.8866 7.81339 10.9266L7.16006 11.1866C6.76006 11.3466 6.45339 11.12 6.48006 10.6933L6.52006 9.99331C6.52672 9.88664 6.47339 9.72664 6.40672 9.64664L5.96006 9.10664C5.68672 8.77331 5.80006 8.41331 6.22006 8.30664L6.90006 8.13331C7.00672 8.10664 7.14006 8.00664 7.19339 7.91997L7.57339 7.32664C7.81339 6.96664 8.18672 6.96664 8.42006 7.32664Z" stroke="#2196F3" stroke-width="1.5" stroke-linecap="round" stroke-linejoin="round"/>
</svg>
